<svg width="36" height="31" fill="none" xmlns="http://www.w3.org/2000/svg"><path d="M18 9.8c-.4 0-.7.3-.7.7 0 .4.3.7.7.7.4 0 .7-.3.7-.7 0-.4-.3-.7-.7-.7z" fill="#00B2FF"/><path d="M33.9 14h-2.7C29.7 10 27.6 2.6 23.8.5c-1.9-1-3.7-.3-4.3 1.2-.3.6-.9 1-1.5 1s-1.2-.4-1.5-1C16 .3 14.1-.5 12.3.4 8.5 2.3 6.3 9.8 4.8 14H2.1C1 14 0 15 0 16.1c0 1.2 1 2.2 2.1 2.2H34c1.2 0 2.1-1 2.1-2.2 0-1.1-1-2-2.1-2zM7.3 11.2h7.9c.4 0 .7-.3.7-.7 0-.4-.3-.7-.7-.7H7.8C10 3.8 12 2 13 1.7c1.1-.6 2-.1 2.4.6A3 3 0 0 0 18 4a3 3 0 0 0 2.7-1.7c.4-.8 1.3-1.2 2.5-.5 1 .5 3 2.3 5 8h-7.4c-.4 0-.7.3-.7.7 0 .4.3.7.7.7h7.9l1 2.8H6.3l1-2.8zM34 16.8H2a.7.7 0 0 1-.7-.7c0-.4.3-.7.7-.7H34c.4 0 .7.3.7.7 0 .4-.3.7-.7.7zM16.6 21H5.3c-.3 0-.7.4-.7.8v2.8c0 3.5 2.9 6.4 6.4 6.4 2.6 0 5-1.6 5.9-4.1.7-.3 1.5-.3 2.2 0a6.3 6.3 0 0 0 12.3-2.3v-2.8c0-.4-.4-.7-.7-.7H19.4c-.4 0-.7.3-.7.7v.7h-1.4v-.7c0-.4-.3-.7-.7-.7zM11 29.7a5 5 0 0 1-5-5v-2.1H16v2.1a5 5 0 0 1-5 5zm9.1-7.1H30v2.1a5 5 0 0 1-5 5 5 5 0 0 1-4.9-5v-2.1zm-1.4 1.4v1.4h-1.4v-1.4h1.4z" fill="#00B2FF"/><path d="M11 26.8c-1.2 0-2.1-1-2.1-2.2 0-.4-.4-.7-.7-.7-.4 0-.7.3-.7.7 0 2 1.5 3.6 3.5 3.6.4 0 .7-.3.7-.7 0-.4-.3-.7-.7-.7zM25 28.2c2 0 3.5-1.6 3.5-3.6 0-.4-.3-.7-.7-.7-.3 0-.7.3-.7.7 0 1.2-1 2.2-2 2.2-.5 0-.8.3-.8.7 0 .4.3.7.7.7z" fill="#00B2FF"/></svg>