<svg width="19" height="14" fill="none" xmlns="http://www.w3.org/2000/svg"><symbol id="mail" viewBox="0 6 61 61"></symbol><path d="M16.7 0H2.3C1 0 0 1 0 2.2v9.6C0 13 1 14 2.3 14h14.4c1.3 0 2.3-1 2.3-2.2V2.3C19 1 18 0 16.7 0zm1.2 11.8c0 .6-.5 1.2-1.2 1.2H2.3c-.7 0-1.2-.6-1.2-1.2V2.3C1 1.6 1.6 1 2.3 1h14.4c.7 0 1.2.6 1.2 1.3v9.5z" fill="#00B2FF"/><path d="M12 6.9l4.6-4c.2-.2.3-.6 0-.8a.5.5 0 0 0-.7 0L9.5 7.7 8.3 6.6l-.1-.1L3 2a.5.5 0 0 0-.8 0c-.2.2-.1.6 0 .7L7.2 7l-4.7 4.3c-.2.2-.2.5 0 .7l.4.2s.2 0 .3-.2L8 7.6l1.3 1.1a.5.5 0 0 0 .7 0l1.3-1.1 4.7 4.3.4.2c.1 0 .3 0 .4-.2.2-.2.2-.5 0-.7L12 6.9z" fill="#00B2FF"/></svg>
