<svg class="logo-image logo-image--desktop" width="202" height="52" fill="none" xmlns="http://www.w3.org/2000/svg"><path d="M32 13.9c1.2 0 2.1.7 2.5 1.7h9a2.6 2.6 0 1 1 0 1.7h-9a2.6 2.6 0 1 1-2.4-3.4zm14 3.4a.9.9 0 1 0 0-1.7.9.9 0 0 0 0 1.7zm-14 0a.9.9 0 1 0 0-1.7.9.9 0 0 0 0 1.7z" fill="#00B2FF"/><path d="M25.1 19.2V14c0-.3.1-.5.3-.6l3.5-3.5c.1-.2.3-.3.6-.3h2.7a2.6 2.6 0 1 1 0 1.8h-2.4l-3 3v5a2.6 2.6 0 1 1-1.7 0zm9.6-8a.9.9 0 1 0 0-1.7.9.9 0 0 0 0 1.8zM26 22.6a.9.9 0 1 0 0-1.7.9.9 0 0 0 0 1.7zm-16.5-.1c.4 0 .8.1 1.1.3l1.5-1.5V13c0-.2.1-.5.3-.6L21 3.7a2 2 0 0 1-.3-1.1 2.6 2.6 0 1 1 2.6 2.6 2 2 0 0 1-1.1-.3l-8.4 8.5v8.3l-.3.6L12 24l.2 1.1a2.6 2.6 0 1 1-2.6-2.6zm13.9-19a.9.9 0 1 0 0-1.8.9.9 0 0 0 0 1.8zM9.5 26a.9.9 0 1 0 0-1.7.9.9 0 0 0 0 1.7zM1.7 12.3V8.7c0-.3.1-.5.3-.6L8 2c.2-.2.4-.3.7-.3h4.5a2.6 2.6 0 1 1 0 1.8H9L3.5 9v3.3a2.6 2.6 0 1 1-1.8 0zm13.9-8.8a.9.9 0 1 0 0-1.8.9.9 0 0 0 0 1.8zm-13 12.1a.9.9 0 1 0 0-1.7.9.9 0 0 0 0 1.7zM13.9 47V34.5a2.6 2.6 0 1 1 3.3-3.3h9c.3-1 1.3-1.7 2.4-1.7 1.1 0 2 .7 2.4 1.7h5l3.3-3.2c-.2-.4-.3-.7-.3-1.1a2.6 2.6 0 1 1 2.6 2.6 2 2 0 0 1-1.1-.3L37 32.7l-.6.2H31c-.3 1-1.3 1.8-2.4 1.8-1.1 0-2-.8-2.4-1.8h-9c-.3.8-.9 1.3-1.6 1.6V47a2.6 2.6 0 1 1-1.7 0zm27.7-19.3a.9.9 0 1 0 0-1.7.9.9 0 0 0 0 1.7zm-13 5.2a.9.9 0 1 0 0-1.7.9.9 0 0 0 0 1.7zM14.7 50.3a.9.9 0 1 0 0-1.8.9.9 0 0 0 0 1.8zm0-17.4a.9.9 0 1 0 0-1.7.9.9 0 0 0 0 1.7z" fill="#00B2FF"/><path d="M18.2 17.5v-2.8c0-.2 0-.4.3-.6L28.9 3.7a2 2 0 0 1-.3-1.1c0-1.4 1.2-2.6 2.6-2.6 1.1 0 2 .7 2.4 1.7h3.7c.4 0 .8.4.8.9v2.2l3.3 3.3a2 2 0 0 1 1-.3 2.6 2.6 0 1 1-2.5 2.6c0-.4 0-.8.2-1.1l-3.4-3.5a.9.9 0 0 1-.3-.6V3.5h-2.8a2.6 2.6 0 0 1-3.5 1.4L19.9 15.1v2.4a2.6 2.6 0 1 1-1.7 0zm24.3-6.2a.9.9 0 1 0 0-1.8.9.9 0 0 0 0 1.8zM31.2 3.5a.9.9 0 1 0 0-1.8.9.9 0 0 0 0 1.8zM19.1 20.8a.9.9 0 1 0 0-1.7.9.9 0 0 0 0 1.7z" fill="#00B2FF"/><path d="M20.8 24.3c1.1 0 2 .7 2.4 1.7h10.2l5-5 .6-.2h9.2l2-2v-7.2L43.7 5c-.4.2-.7.3-1.1.3A2.6 2.6 0 1 1 45 2.6c0 .4-.1.8-.3 1.1l7 7 .2.6V19c0 .2 0 .4-.3.6L49 22.2l-.6.2h-9.1l-5 5-.6.2H23.2a2.6 2.6 0 1 1-2.4-3.4zM42.5 1.7a.9.9 0 1 0 0 1.8.9.9 0 0 0 0-1.8zm-21.7 26a.9.9 0 1 0 0-1.7.9.9 0 0 0 0 1.7zM2.6 20.8c.4 0 .8.1 1.1.3L7 17.8v-5a2.6 2.6 0 1 1 1.8 0v5.4c0 .2-.1.5-.3.6L5 22.3a2.6 2.6 0 0 1-1.4 3.5v.7l6.6 6.7c.2.1.3.4.3.6v1c1 .4 1.7 1.3 1.7 2.5 0 1-.7 2-1.7 2.4v2a2.6 2.6 0 1 1-1.7 0v-2c-1-.4-1.8-1.3-1.8-2.4 0-1.2.8-2.1 1.8-2.5v-.6L2 27.5a.9.9 0 0 1-.3-.6v-1a2.6 2.6 0 0 1 .9-5.1zm5.2-9.5a.9.9 0 1 0 0-1.8.9.9 0 0 0 0 1.8zM9.5 45a.9.9 0 1 0 0-1.8.9.9 0 0 0 0 1.8zm0-7a.9.9 0 1 0 0-1.7.9.9 0 0 0 0 1.7zM2.6 24.3a.9.9 0 1 0 0-1.8.9.9 0 0 0 0 1.8z" fill="#00B2FF"/><path d="M77 24.3c0-.7-.3-1.2-.6-1.6-.4-.4-1-.8-2-1.2a9 9 0 0 1-3.9-2.3c-.8-1-1.2-2-1.2-3.2a5 5 0 0 1 1.6-3.7 6 6 0 0 1 4-1.3c1.2 0 2.1.2 3 .7.9.4 1.5 1 2 2 .4.8.7 1.7.7 2.8H77a3 3 0 0 0-.6-2c-.3-.4-.8-.6-1.5-.6a2 2 0 0 0-1.4.6 2 2 0 0 0-.6 1.5c0 .5.2 1 .6 1.3a7 7 0 0 0 2 1.2c1.8.7 3 1.4 3.9 2.3.8 1 1.1 2.1 1.1 3.5 0 1.6-.4 2.8-1.4 3.6-1 1-2.4 1.3-4 1.3a7 7 0 0 1-3.2-.7 5.4 5.4 0 0 1-3-5.1h3.6c0 1 .2 1.8.6 2.2.4.5 1 .7 2 .7 1.2 0 1.8-.6 1.8-2zm9-8.5l.1 1.2c.8-1 1.8-1.5 3-1.5a3 3 0 0 1 2.9 1.8 3.6 3.6 0 0 1 3.2-1.8c2.3 0 3.5 1.6 3.5 4.8V29h-3.4v-8.4c0-.8-.1-1.3-.3-1.7-.2-.3-.6-.5-1.1-.5-.6 0-1.1.4-1.4 1.2V29H89v-8.4c0-.8 0-1.3-.3-1.6-.2-.4-.5-.6-1-.6-.7 0-1.1.4-1.5 1V29h-3.4V15.8H86zM107.6 29l-.3-1a3 3 0 0 1-2.5 1.2 4 4 0 0 1-2.8-1c-.7-.8-1-1.7-1-2.9a4 4 0 0 1 1.3-3.2c.8-.8 2.1-1.2 3.8-1.2h1v-1c0-.6 0-1-.3-1.3-.2-.2-.5-.4-.9-.4-.8 0-1.3.6-1.3 1.6h-3.4c0-1.3.4-2.3 1.3-3a5 5 0 0 1 3.5-1.3c1.5 0 2.6.4 3.4 1.2.8.7 1.2 1.8 1.2 3.2v6.2c0 1.2.2 2 .5 2.7v.2h-3.5zm-2-2.5c.3 0 .7 0 1-.2l.5-.5V23h-.8c-.6 0-1 .2-1.4.6-.3.3-.5.8-.5 1.5 0 1 .4 1.4 1.1 1.4zm14-7.4h-1.1c-1 0-1.6.3-2 1.2V29h-3.4V15.8h3.2l.1 1.4c.6-1 1.3-1.7 2.3-1.7l1 .2-.1 3.4zm6.4-6.6v3.3h1.8v2.6H126v6.5c0 .6 0 1 .2 1.1.2.2.4.3.8.3h.9v2.6c-.6.2-1.3.3-2 .3-2.2 0-3.3-1.2-3.3-3.8v-7H121v-2.6h1.6v-3.3h3.4zm9.6 16.5V11.2h4.7c2 0 3.7.7 5 2a7.7 7.7 0 0 1 1.9 5.4v2.9a8 8 0 0 1-1.9 5.5c-1.2 1.3-3 2-5 2h-4.7zm3.6-14.8V26h1c1.3 0 2.1-.3 2.6-1 .5-.6.7-1.6.8-3.2v-3c0-1.7-.3-2.9-.7-3.5-.5-.7-1.3-1-2.4-1h-1.3zm15.7 15c-1.8 0-3.1-.5-4.1-1.5a6.5 6.5 0 0 1-1.5-4.6v-1a8 8 0 0 1 1.3-4.9c1-1 2.3-1.7 4-1.7 1.6 0 2.9.6 3.7 1.6a8 8 0 0 1 1.3 4.8v1.7h-6.9c0 1 .3 1.6.7 2.1.3.5 1 .7 1.7.7a4 4 0 0 0 3-1.2l1.3 2c-.4.7-1 1.1-1.9 1.5-.8.4-1.6.5-2.6.5zm-2.2-8h3.5v-.4a4 4 0 0 0-.4-1.8c-.2-.4-.7-.6-1.3-.6-.6 0-1 .2-1.3.7-.3.4-.4 1-.5 2zm13 3l1.7-8.4h3.6L167.4 29H164l-3.7-13.2h3.6l1.7 8.3zm10.5 4.8h-3.4V15.8h3.4V29zm-3.6-16.6c0-.6.2-1 .5-1.3.4-.4.8-.6 1.4-.6.6 0 1 .2 1.3.6.4.3.6.7.6 1.3 0 .5-.2 1-.6 1.3-.3.3-.7.5-1.3.5-.6 0-1-.2-1.4-.5-.3-.4-.5-.8-.5-1.3zm11 14c1 0 1.6-.7 1.6-2h3.2c0 1.5-.4 2.6-1.3 3.5-.9.9-2 1.3-3.4 1.3-1.7 0-3-.5-3.8-1.5-1-1.1-1.4-2.7-1.4-4.7v-1c0-2.1.4-3.7 1.3-4.8.9-1.1 2.2-1.7 4-1.7 1.4 0 2.5.5 3.4 1.4.8.9 1.2 2.2 1.2 3.8h-3.2c0-.7-.1-1.3-.4-1.7-.2-.4-.6-.6-1.1-.6-.6 0-1 .2-1.3.7-.3.4-.4 1.2-.4 2.4V23l.1 2.2c.1.5.3.8.5 1 .3.2.6.3 1 .3zm12.1 2.8c-1.7 0-3.1-.5-4.1-1.5a6.5 6.5 0 0 1-1.5-4.6v-1a8 8 0 0 1 1.4-4.9c.9-1 2.2-1.7 3.9-1.7 1.6 0 2.9.6 3.7 1.6.9 1.1 1.3 2.7 1.3 4.8v1.7h-6.9c0 1 .3 1.6.7 2.1.4.5 1 .7 1.8.7 1.1 0 2-.4 2.8-1.2l1.4 2c-.4.7-1 1.1-1.8 1.5a6 6 0 0 1-2.7.5zm-2.1-8h3.4v-.4c0-.8-.1-1.4-.4-1.8-.2-.4-.6-.6-1.2-.6s-1 .2-1.4.7c-.2.4-.4 1-.4 2z" fill="#fff"/><path d="M71 45l1.2-4.3h1.6L71.2 48c-.4 1-1 1.6-2 1.6l-.6-.1v-1.1h.2l.9-.2.4-.7.2-.5-2.2-6.3h1.5L71 45zm7.3.2l2-4.5H82V47h-1.4v-4.2L78.8 47h-1l-1.7-4.2V47h-1.4v-6.3h1.8l1.8 4.5zM89 47h-1.5v-2.6h-2.4V47h-1.4v-6.3H85v2.6h2.4v-2.6H89V47zm3-4.3h1.4c.5 0 1 0 1.4.2a2 2 0 0 1 1.2 2 2 2 0 0 1-.7 1.5c-.5.4-1.1.6-1.9.6h-2.8v-6.3H92v2zm6.4 4.3H97v-6.3h1.4V47zM92 43.8v2h1.4c.4 0 .6 0 .8-.2.2-.2.3-.4.3-.7a1 1 0 0 0-.3-.8c-.2-.2-.4-.3-.8-.3H92zm11 3.3a3 3 0 0 1-2.3-.8c-.5-.6-.8-1.4-.8-2.3v-.2c0-.6.1-1.2.4-1.7.2-.5.6-.9 1-1.1.4-.3 1-.5 1.5-.5.8 0 1.5.3 2 .9.4.5.7 1.3.7 2.3v.6h-4.2c0 .5.3 1 .6 1.2.3.3.7.5 1.1.5a2 2 0 0 0 1.6-.8l.8.7-1 1-1.5.2zm-.2-5.4c-.4 0-.7.1-1 .4-.2.3-.4.6-.4 1.1h2.7c0-.5-.2-.9-.4-1.1-.2-.3-.5-.4-1-.4zm11.8 0h-2V47H111v-5.2h-2v-1.1h5.5v1zm3.3 5.4a3 3 0 0 1-2.2-.8c-.5-.6-.8-1.4-.8-2.3v-.2c0-.6.1-1.2.4-1.7.2-.5.6-.9 1-1.1.4-.3 1-.5 1.5-.5.8 0 1.5.3 2 .9.4.5.7 1.3.7 2.3v.6h-4.2c0 .5.3 1 .6 1.2.3.3.7.5 1.1.5a2 2 0 0 0 1.6-.8l.8.7-1 1-1.5.2zm-.1-5.4c-.4 0-.7.1-1 .4-.2.3-.4.6-.4 1.1h2.7c0-.5-.2-.9-.4-1.1-.2-.3-.5-.4-1-.4zm6 1l1.3-2h1.6l-2 3 2 3.3h-1.5l-1.3-2.2-1.3 2.2H121l2-3.2-1.9-3.1h1.6l1.2 2zM133 47h-1.4v-2.6H129V47h-1.4v-6.3h1.4v2.6h2.5v-2.6h1.4V47zm1.3-3.2c0-.6 0-1.2.3-1.7s.6-.9 1-1.2a3 3 0 0 1 1.6-.4c.8 0 1.5.3 2 .9.6.5.9 1.3 1 2.2v.3c0 .6-.2 1.2-.4 1.7-.3.5-.6.8-1 1.1a3 3 0 0 1-1.6.4c-.9 0-1.6-.3-2.1-.9-.6-.6-.8-1.4-.8-2.4zm1.4 0c0 .7.1 1.3.4 1.6.3.4.6.6 1.1.6.5 0 .9-.2 1.1-.6.3-.4.4-1 .4-1.6 0-.7-.1-1.2-.4-1.6-.3-.3-.6-.5-1.1-.5-.5 0-.8.2-1.1.5-.3.4-.4 1-.4 1.7zm11-3.1V47h-1.5v-5.2h-1.8V44c-.2 1-.4 1.8-.7 2.3-.3.5-.8.7-1.5.7h-.5v-1.2h.3c.3 0 .6-.2.7-.6l.3-1.8v-2.7h4.6zm1.2 3c0-.5.1-1.1.4-1.6a3 3 0 0 1 1-1.2c.4-.2 1-.4 1.5-.4.9 0 1.6.3 2.1.9.5.5.8 1.3.9 2.2v.3c0 .6-.1 1.2-.4 1.7-.2.5-.6.8-1 1.1a3 3 0 0 1-1.6.4c-.8 0-1.6-.3-2.1-.9-.5-.6-.8-1.4-.8-2.4zm1.4.2c0 .6.2 1.2.4 1.5.3.4.7.6 1.1.6.5 0 .9-.2 1.2-.6a3.4 3.4 0 0 0 0-3.2c-.3-.3-.7-.5-1.2-.5-.4 0-.8.2-1 .5-.3.4-.5 1-.5 1.7zm10-2h-2.8V47H155v-6.3h4.2v1.1zm4.7-1.2h1.4V47H164v-4.2l-2.5 4.2H160v-6.3h1.4v4.2l2.5-4.2zm6.9 0h1.4V47h-1.4v-4.2l-2.5 4.2H167v-6.3h1.4v4.2l2.5-4.2z" fill="#788891"/></svg>