<svg width="38" height="38" fill="none" xmlns="http://www.w3.org/2000/svg"><path d="M23.4 10.1c.9 0 1.6.6 1.8 1.3h6.6a1.9 1.9 0 1 1 0 1.3h-6.6a1.9 1.9 0 1 1-1.8-2.6zm10.2 2.6a.6.6 0 1 0 0-1.3.6.6 0 0 0 0 1.3zm-10.2 0a.6.6 0 1 0 0-1.3.6.6 0 0 0 0 1.3z" fill="#00B2FF"/><path d="M18.4 14v-3.9c0-.1 0-.3.2-.4L21 7.2c.1-.2.3-.2.4-.2h2a1.9 1.9 0 1 1 0 1.2h-1.7l-2.2 2.2V14a1.9 1.9 0 1 1-1.2 0zm7-5.8a.6.6 0 1 0 0-1.2.6.6 0 0 0 0 1.2zM19 16.5a.6.6 0 1 0 0-1.3.6.6 0 0 0 0 1.3zM7 16.5c.3 0 .5 0 .8.2l1-1.1V9.5c0-.2.1-.3.3-.4l6.3-6.4-.2-.8a1.9 1.9 0 1 1 1.9 1.9c-.3 0-.6 0-.8-.2L10 9.8v6c0 .2 0 .4-.2.5l-1.2 1.3.2.8a1.9 1.9 0 1 1-2-2zM17 2.5a.6.6 0 1 0 0-1.2.6.6 0 0 0 0 1.2zM7 19a.6.6 0 1 0 0-1.3.6.6 0 0 0 0 1.3zM1.3 9V6.3c0-.1 0-.3.2-.4l4.4-4.4c.1-.2.3-.2.4-.2h3.3a1.9 1.9 0 1 1 0 1.2h-3l-4 4.1V9a1.9 1.9 0 1 1-1.3 0zm10.1-6.5a.6.6 0 1 0 0-1.2.6.6 0 0 0 0 1.2zm-9.5 8.9a.6.6 0 1 0 0-1.3.6.6 0 0 0 0 1.3zM10.1 34.3v-9a1.9 1.9 0 1 1 2.5-2.5H19c.3-.7 1-1.3 1.8-1.3s1.5.6 1.8 1.3h3.6l2.4-2.4-.2-.8a1.9 1.9 0 1 1 1.9 2c-.3 0-.6-.1-.8-.3L27 24l-.4.2h-4c-.2.7-.9 1.2-1.7 1.2-.8 0-1.5-.5-1.8-1.2h-6.6c-.1.5-.6 1-1.1 1.1v9.1a1.9 1.9 0 1 1-1.3 0zm20.3-14a.6.6 0 1 0 0-1.3.6.6 0 0 0 0 1.3zM20.9 24a.6.6 0 1 0 0-1.3.6.6 0 0 0 0 1.3zM10.8 36.7a.6.6 0 1 0 0-1.2.6.6 0 0 0 0 1.2zm0-12.6a.6.6 0 1 0 0-1.3.6.6 0 0 0 0 1.3z" fill="#00B2FF"/><path d="M13.3 12.8v-2c0-.2 0-.4.2-.5L21 2.7l-.2-.8c0-1 .9-1.9 1.9-1.9.8 0 1.5.5 1.8 1.3h2.6c.4 0 .7.2.7.6v1.6L30.2 6l.8-.2a1.9 1.9 0 1 1-1.9 1.9l.2-.8-2.5-2.6a.6.6 0 0 1-.2-.4V2.5h-2A1.9 1.9 0 0 1 22 3.6L14.6 11v1.8a1.9 1.9 0 1 1-1.3 0zM31 8.2A.6.6 0 1 0 31 7a.6.6 0 0 0 0 1.2zm-8.2-5.7a.6.6 0 1 0 0-1.2.6.6 0 0 0 0 1.2zm-8.9 12.7a.6.6 0 1 0 0-1.3.6.6 0 0 0 0 1.3z" fill="#00B2FF"/><path d="M15.2 17.7c.8 0 1.5.6 1.8 1.3h7.4l3.7-3.6.4-.2h6.7l1.5-1.5V8.5l-4.9-4.9-.8.2a1.9 1.9 0 1 1 2-1.9c0 .3-.1.6-.3.8l5.1 5 .2.5V14c0 .2 0 .4-.2.5L36 16.3l-.4.2h-6.7L25 20l-.4.2H17a1.9 1.9 0 1 1-1.8-2.6zM31 1.3a.6.6 0 1 0 0 1.2.6.6 0 0 0 0-1.2zm-15.8 19a.6.6 0 1 0 0-1.3.6.6 0 0 0 0 1.3zM1.9 15.2c.3 0 .6 0 .8.2L5.1 13V9.4a1.9 1.9 0 1 1 1.2 0v3.9c0 .2 0 .3-.2.4l-2.5 2.6a1.9 1.9 0 0 1-1 2.6v.5l4.8 4.9.2.4v.7c.7.3 1.3 1 1.3 1.8 0 .9-.6 1.6-1.3 1.8v1.5a1.9 1.9 0 1 1-1.3 0V29c-.7-.2-1.2-1-1.2-1.8s.5-1.5 1.2-1.8V25l-4.8-5a.6.6 0 0 1-.2-.4V19a1.9 1.9 0 0 1 .6-3.7zm3.8-7a.6.6 0 1 0 0-1.2.6.6 0 0 0 0 1.2zM7 33a.6.6 0 1 0 0-1.2.6.6 0 0 0 0 1.2zm0-5a.6.6 0 1 0 0-1.3.6.6 0 0 0 0 1.3zM1.9 17.7a.6.6 0 1 0 0-1.2.6.6 0 0 0 0 1.2z" fill="#00B2FF"/></svg>