<svg width="27" height="26" fill="none" xmlns="http://www.w3.org/2000/svg"><path d="M13.9 11c1 0 1.8-.9 1.7-1.8 0-.9-.7-1.8-1.7-1.8S12 8.2 12 9.2s.8 1.8 1.8 1.8z" fill="#CDCDCD"/><path d="M13.7 0C6.4 0 .5 5.8.5 13s6 13 13.2 13a13 13 0 0 0 13.2-13A13 13 0 0 0 13.7 0zm.2 5c2.4 0 4.3 1.9 4.3 4.2 0 2.4-2 4.3-4.4 4.3-2.4 0-4.3-2-4.3-4.3 0-2.4 2-4.3 4.4-4.3zm4.8 10c0 .4-.2.7-.6 1a7.5 7.5 0 0 1-2.4 1l1 1 1.3 1.3c.6.6.5 1.7-.3 2l-.4.2H17c-.3 0-.6-.2-.8-.4l-2.3-2.3a24510.2 24510.2 0 0 0-2.8 2.6h-.4-.2-.1c-.5 0-.9-.3-1-.8-.2-.5 0-1 .3-1.3l1-.9L12 17c.1 0 .1 0 0 0l-2.4-1c-.4-.3-.6-.7-.6-1.2.1-1 1.2-1.5 2-1l.4.3a5.4 5.4 0 0 0 4.2.3l1.2-.6a1.3 1.3 0 0 1 2 1v.1z" fill="#CDCDCD"/></svg>