<svg width="18" height="18" fill="none" xmlns="http://www.w3.org/2000/svg"><path d="M14.2 11.2c-.3-.4-.8-.6-1.3-.6-.4 0-.9.2-1.3.5l-1.2 1.2-.2-.1-.4-.2a13 13 0 0 1-4.2-4.5l.9-.8.3-.4c.8-.8.8-1.8 0-2.6l-1-1a15.8 15.8 0 0 1-1-1.1c-.5-.4-.9-.6-1.4-.6-.4 0-.9.2-1.3.6L.8 3C.4 3.4.1 4 0 4.7c0 1 .3 2.1.5 2.8.6 1.7 1.5 3.2 3 4.8C5 14.3 7 16 9.3 17a9.3 9.3 0 0 0 3.6 1c.8 0 1.6-.3 2.2-1l.6-.6.5-.5c.4-.4.6-.9.6-1.4 0-.4-.2-.9-.6-1.3l-2-2zm1.4 4l-.5.4-.7.8c-.4.4-.8.6-1.4.6h-.2c-1.1-.1-2.2-.5-3-1a16.9 16.9 0 0 1-8.3-8.9C1 6.1 1 5.5 1 4.8c0-.5.3-.9.6-1.2l1.3-1.3.5-.2.6.2.7.7.4.4 1 1c.4.4.4.8 0 1.2l-.3.3-1 1c-.3.3-.3.6-.2.8.3.7.7 1.3 1.2 2a14 14 0 0 0 3.9 3.4l.4.2.4.1.6-.2 1.3-1.3c0-.2.3-.3.5-.3.3 0 .5.1.6.3l2 2c.5.4.5.8.1 1.3zM9.7 4.3c1 .1 2 .6 2.7 1.3.7.8 1.1 1.7 1.3 2.7 0 .2.3.4.5.4h.1c.3 0 .5-.3.4-.6A5.9 5.9 0 0 0 10 3.3c-.3 0-.5.1-.6.4 0 .3.1.5.4.6zM18 8a9.6 9.6 0 0 0-8-8 .5.5 0 1 0-.1 1 8.6 8.6 0 0 1 7 7.1c.1.3.3.4.6.4.4 0 .5-.3.5-.6z" fill="#00B2FF"/></svg>