<svg width="29" height="35" fill="none" xmlns="http://www.w3.org/2000/svg"><path d="M3.2 11.7l-1.5-1.5a2 2 0 0 1 0-3 2 2 0 0 1 3 0L6.1 9c1.7-1.2 3.6-2 5.5-2.3v-2h-1.3a.7.7 0 0 1-.7-.8V2.1c0-1.2.9-2.1 2-2.1h5.6c1.1 0 2 1 2 2v1.8c0 .4-.3.7-.7.7h-1.3v2c2 .4 3.8 1.2 5.5 2.4l1.6-1.6a2 2 0 0 1 2.9 0 2 2 0 0 1 0 2.9l-1.5 1.5c2 2.5 3.2 5.7 3.2 9C29 28.5 22.5 35 14.5 35S0 28.6 0 20.6c0-3.2 1.1-6.4 3.2-9zm.5-3.4a.7.7 0 0 0-1 0c-.3.2-.3.7 0 1L4 10.5l1-.9-1.4-1.4zM18 2c0-.4-.4-.7-.7-.7h-5.6c-.3 0-.7.3-.7.7v1h7v-1zM13 4.5v1.9H16V4.5H13zm13.2 3.8a.7.7 0 0 0-1 0L24 9.7l1 1 1.4-1.5c.3-.2.3-.7 0-1zM14.5 33.6a13 13 0 0 0 13.1-13 12.9 12.9 0 0 0-5.2-10.3 13.2 13.2 0 0 0-21 10.3 13 13 0 0 0 13.1 13z" fill="#fff"/><path d="M14.5 22.7a2 2 0 0 1-2-2 2 2 0 0 1 1.3-2v-4.9c0-.4.3-.7.7-.7.4 0 .7.3.7.7v5a2 2 0 0 1 1.4 1.8c0 1.2-1 2.1-2.1 2.1zm0-2.7c-.4 0-.7.3-.7.6 0 .4.3.7.7.7.4 0 .7-.3.7-.7 0-.3-.3-.6-.7-.6z" fill="#fff"/><path d="M7.1 13.4h.1c1.2-1.2 2.7-2.1 4.4-2.6.3-.1.7.1.8.5.1.3 0 .7-.4.8A9 9 0 0 0 8.7 14l.4.5c.3.2.3.7 0 1a.7.7 0 0 1-1 0l-.4-.5a8.8 8.8 0 0 0-2.1 5h.6c.4 0 .7.4.7.7 0 .4-.3.7-.7.7h-.6c0 2 .8 3.7 2 5.1l.6-.4c.2-.3.7-.3 1 0 .2.2.2.7 0 1l-.5.4a9 9 0 0 0 5.1 2.1v-.7c0-.3.3-.6.7-.6.4 0 .7.3.7.6v.7a9 9 0 0 0 5.1-2.1l-.4-.5a.7.7 0 0 1 0-1c.2-.2.7-.2 1 0l.4.5c1.3-1.4 2-3.2 2.1-5h-.6a.7.7 0 0 1-.7-.8c0-.3.3-.6.7-.6h.6a8.8 8.8 0 0 0-2-5.1l-.6.4a.7.7 0 0 1-1 0 .7.7 0 0 1 0-1l.5-.4a9 9 0 0 0-3.3-1.8.7.7 0 1 1 .4-1.3 10.4 10.4 0 0 1 4.4 2.6 10.1 10.1 0 0 1 0 14.5 10.3 10.3 0 0 1-14.6 0 10.1 10.1 0 0 1 0-14.5z" fill="#fff"/><path d="M14.5 11.8a.7.7 0 0 1-.7-.7c0-.4.3-.7.7-.7.4 0 .7.3.7.7 0 .4-.3.7-.7.7z" fill="#fff"/></svg>