<svg width="35" height="35" fill="none" xmlns="http://www.w3.org/2000/svg"><path d="M31.3 27.9c.3-.5.6-1.2.6-1.8v-4.2c0-.3-.3-.6-.7-.6h-3a2.6 2.6 0 0 0-2.6 2.5v2.3c0 .6.2 1.3.6 1.8-.5 0-1 .2-1.4.4a5.8 5.8 0 0 0-4.3-2.5 4 4 0 0 0 1-2.7v-5.6c0-.4-.3-.7-.6-.7h-4.2a3.2 3.2 0 0 0-3.2 3.3v3c0 1 .4 2 1 2.7a5.8 5.8 0 0 0-4.3 2.5L8.8 28c.4-.5.6-1.2.6-1.8v-4.2c0-.3-.3-.6-.6-.6H5.7a2.6 2.6 0 0 0-2.6 2.5v2.3c0 .6.3 1.3.6 1.8A4.5 4.5 0 0 0 0 32.3v2c0 .4.3.7.7.7h33.6c.4 0 .7-.3.7-.7v-2c0-2.2-1.6-4-3.7-4.4zm-26.8-4c0-.7.5-1.3 1.2-1.3h2.4v.9c0 .4-.4.7-.8.7H4.5v-.4zm0 1.7h2.8c.3 0 .5 0 .8-.2v.7a1.8 1.8 0 0 1-3.6 0v-.5zm2.2 3.6l-.4.4-.5-.4h1zm2.5 2.4v2H1.4v-1.3a3 3 0 0 1 2.6-3L5.8 31a.7.7 0 0 0 1 0l1.8-1.9c.3 0 .7.2 1 .4-.3.6-.4 1.3-.4 2zm8.3-5.8a2.7 2.7 0 0 1-2.7-2.7v-1H19c.5 0 .9 0 1.3-.2V23c0 1.5-1.2 2.7-2.7 2.7zm1.2 1.3l-1.2 1.2-1.2-1.2h2.4zm-3.9-7c0-1 .9-2 1.9-2h3.5v1.5c0 .7-.6 1.2-1.3 1.2h-4v-.7zm9.6 13.5H10.6v-1.3H15a.7.7 0 1 0 0-1.4h-4.4c.3-2 1.9-3.5 3.8-3.7l2.6 2.6a.7.7 0 0 0 1 0l2.6-2.6c2.2.3 3.8 2.1 3.8 4.4v2zm2.5-9.8c0-.6.6-1.2 1.2-1.2h2.4v.9c0 .4-.3.7-.7.7h-2.9v-.4zm0 1.8h2.9c.2 0 .5 0 .7-.2v.7a1.8 1.8 0 0 1-3.6 0v-.5zm2.3 3.6l-.5.4-.4-.4h.9zm-3.4 4.4v-2c0-.7-.1-1.4-.4-2a3 3 0 0 1 1-.4l1.8 1.9a.7.7 0 0 0 1 0l1.8-1.9a3 3 0 0 1 2.6 3v1.4h-7.8zM20.9 4.5a.7.7 0 0 0-1 0l-3.4 3.3-1.4-1.4a.7.7 0 1 0-1 1l2 1.9a.7.7 0 0 0 1 0l3.8-3.9c.2-.2.2-.7 0-1z" fill="#00B2FF"/><path d="M20.3.6a.7.7 0 0 0-.6 1.2 5.5 5.5 0 1 1-4.5 0 .7.7 0 1 0-.5-1.2 6.9 6.9 0 0 0 2.8 13.1A6.9 6.9 0 0 0 20.3.6z" fill="#00B2FF"/><path d="M17.5 0a.7.7 0 0 0 0 1.4.7.7 0 0 0 0-1.4zM18 31.1a.7.7 0 0 0-1 0 .7.7 0 0 0 0 1 .7.7 0 0 0 1 0 .7.7 0 0 0 0-1z" fill="#00B2FF"/></svg>