<svg width="19" height="14" fill="none" xmlns="http://www.w3.org/2000/svg">
<symbol id="mail" viewBox="0 0 19 14">
<path d="M16.7 0H2.3C1 0 0 1 0 2.2v9.6C0 13 1 14 2.3 14h14.4c1.3 0 2.3-1 2.3-2.2V2.3C19 1 18 0 16.7 0zm1.2 11.8c0 .6-.5 1.2-1.2 1.2H2.3c-.7 0-1.2-.6-1.2-1.2V2.3C1 1.6 1.6 1 2.3 1h14.4c.7 0 1.2.6 1.2 1.3v9.5z" fill="#00B2FF"/><path d="M12 6.9l4.6-4c.2-.2.3-.6 0-.8a.5.5 0 0 0-.7 0L9.5 7.7 8.3 6.6l-.1-.1L3 2a.5.5 0 0 0-.8 0c-.2.2-.1.6 0 .7L7.2 7l-4.7 4.3c-.2.2-.2.5 0 .7l.4.2s.2 0 .3-.2L8 7.6l1.3 1.1a.5.5 0 0 0 .7 0l1.3-1.1 4.7 4.3.4.2c.1 0 .3 0 .4-.2.2-.2.2-.5 0-.7L12 6.9z" fill="#00B2FF"/>
</symbol>

<symbol id="fb-icon" viewBox="0 0 27 27">
<path fill-rule="evenodd" clip-rule="evenodd" d="M27 13.5a13.5 13.5 0 1 0-27 0 13.5 13.5 0 0 0 27 0zM16.9 9.3H15c-.4 0-.8.4-.8.9v.8h2.5l-.4 2.5h-2v6.7h-2.6v-6.7h-1.7V11h1.7V9.7c0-1.5.6-2.9 3-3h2v2.6z" fill="#CDCDCD"/>
</symbol>

<symbol id="hired" viewBox="0 0 35 35">
<path d="M31.3 27.9c.3-.5.6-1.2.6-1.8v-4.2c0-.3-.3-.6-.7-.6h-3a2.6 2.6 0 0 0-2.6 2.5v2.3c0 .6.2 1.3.6 1.8-.5 0-1 .2-1.4.4a5.8 5.8 0 0 0-4.3-2.5 4 4 0 0 0 1-2.7v-5.6c0-.4-.3-.7-.6-.7h-4.2a3.2 3.2 0 0 0-3.2 3.3v3c0 1 .4 2 1 2.7a5.8 5.8 0 0 0-4.3 2.5L8.8 28c.4-.5.6-1.2.6-1.8v-4.2c0-.3-.3-.6-.6-.6H5.7a2.6 2.6 0 0 0-2.6 2.5v2.3c0 .6.3 1.3.6 1.8A4.5 4.5 0 0 0 0 32.3v2c0 .4.3.7.7.7h33.6c.4 0 .7-.3.7-.7v-2c0-2.2-1.6-4-3.7-4.4zm-26.8-4c0-.7.5-1.3 1.2-1.3h2.4v.9c0 .4-.4.7-.8.7H4.5v-.4zm0 1.7h2.8c.3 0 .5 0 .8-.2v.7a1.8 1.8 0 0 1-3.6 0v-.5zm2.2 3.6l-.4.4-.5-.4h1zm2.5 2.4v2H1.4v-1.3a3 3 0 0 1 2.6-3L5.8 31a.7.7 0 0 0 1 0l1.8-1.9c.3 0 .7.2 1 .4-.3.6-.4 1.3-.4 2zm8.3-5.8a2.7 2.7 0 0 1-2.7-2.7v-1H19c.5 0 .9 0 1.3-.2V23c0 1.5-1.2 2.7-2.7 2.7zm1.2 1.3l-1.2 1.2-1.2-1.2h2.4zm-3.9-7c0-1 .9-2 1.9-2h3.5v1.5c0 .7-.6 1.2-1.3 1.2h-4v-.7zm9.6 13.5H10.6v-1.3H15a.7.7 0 1 0 0-1.4h-4.4c.3-2 1.9-3.5 3.8-3.7l2.6 2.6a.7.7 0 0 0 1 0l2.6-2.6c2.2.3 3.8 2.1 3.8 4.4v2zm2.5-9.8c0-.6.6-1.2 1.2-1.2h2.4v.9c0 .4-.3.7-.7.7h-2.9v-.4zm0 1.8h2.9c.2 0 .5 0 .7-.2v.7a1.8 1.8 0 0 1-3.6 0v-.5zm2.3 3.6l-.5.4-.4-.4h.9zm-3.4 4.4v-2c0-.7-.1-1.4-.4-2a3 3 0 0 1 1-.4l1.8 1.9a.7.7 0 0 0 1 0l1.8-1.9a3 3 0 0 1 2.6 3v1.4h-7.8zM20.9 4.5a.7.7 0 0 0-1 0l-3.4 3.3-1.4-1.4a.7.7 0 1 0-1 1l2 1.9a.7.7 0 0 0 1 0l3.8-3.9c.2-.2.2-.7 0-1z" /><path d="M20.3.6a.7.7 0 0 0-.6 1.2 5.5 5.5 0 1 1-4.5 0 .7.7 0 1 0-.5-1.2 6.9 6.9 0 0 0 2.8 13.1A6.9 6.9 0 0 0 20.3.6z" /><path d="M17.5 0a.7.7 0 0 0 0 1.4.7.7 0 0 0 0-1.4zM18 31.1a.7.7 0 0 0-1 0 .7.7 0 0 0 0 1 .7.7 0 0 0 1 0 .7.7 0 0 0 0-1z" />
</symbol>

<symbol id="logo-footer-mobile" viewBox="0 0 216 52">
<path d="M77 24.3c0-.7-.3-1.2-.6-1.6-.4-.4-1-.8-2-1.2-1.8-.6-3.1-1.4-3.9-2.3-.8-1-1.2-2-1.2-3.2 0-1.5.6-2.7 1.6-3.7a6 6 0 0 1 4-1.3c1.2 0 2.1.2 3 .7.9.4 1.5 1 2 2 .4.8.7 1.7.7 2.8H77c0-.9-.2-1.5-.6-2-.3-.4-.8-.6-1.5-.6a2 2 0 0 0-1.4.6 2 2 0 0 0-.6 1.5c0 .5.2 1 .6 1.3.4.4 1.1.8 2 1.2 1.8.7 3 1.4 3.9 2.3.8 1 1.1 2.1 1.1 3.5 0 1.6-.4 2.8-1.4 3.6-1 1-2.4 1.3-4 1.3a7 7 0 0 1-3.2-.7 5.4 5.4 0 0 1-3-5.1h3.6c0 1 .2 1.8.6 2.2.4.5 1 .7 2 .7 1.2 0 1.8-.6 1.8-2zm11 5c-1.7 0-3-.6-4-1.6-1-1.1-1.5-2.6-1.5-4.6v-1c0-2.1.4-3.7 1.3-4.9 1-1 2.2-1.7 4-1.7 1.6 0 2.8.6 3.7 1.6.8 1.1 1.3 2.7 1.3 4.8v1.7h-6.9c0 1 .3 1.6.6 2.1.4.5 1 .7 1.8.7 1.2 0 2.1-.4 3-1.2l1.3 2c-.5.7-1 1.1-1.9 1.5-.8.4-1.7.5-2.6.5zM86 21h3.4v-.3c0-.8-.2-1.4-.4-1.8-.3-.4-.7-.6-1.3-.6-.6 0-1 .2-1.3.7-.3.4-.4 1-.5 2zm15.2-2h-1.1c-1 0-1.6.3-2 1.2V29h-3.4V15.8H98v1.4c.6-1 1.4-1.7 2.3-1.7l1 .2v3.4zm6.4 5l1.6-8.3h3.6L109.2 29H106l-3.6-13.2h3.6l1.7 8.3zM118 29h-3.5V15.8h3.5V29zm-3.6-16.6c0-.6.1-1 .5-1.3.3-.4.8-.6 1.4-.6.5 0 1 .2 1.3.6.4.3.5.7.5 1.3 0 .5-.1 1-.5 1.3-.3.3-.8.5-1.3.5-.6 0-1-.2-1.4-.5-.4-.4-.5-.8-.5-1.3zm11 14c1 0 1.6-.7 1.6-2h3.2c0 1.5-.4 2.6-1.3 3.5-.9.9-2 1.3-3.4 1.3-1.7 0-3-.5-3.9-1.5-.9-1.1-1.3-2.7-1.3-4.7v-1c0-2.1.4-3.7 1.3-4.8.9-1.1 2.2-1.7 3.9-1.7 1.4 0 2.6.5 3.4 1.4.9.9 1.3 2.2 1.3 3.8h-3.2c0-.7-.2-1.3-.4-1.7-.2-.4-.6-.6-1.2-.6s-1 .2-1.3.7c-.2.4-.4 1.2-.4 2.4V23c0 1 0 1.8.2 2.2 0 .5.3.8.5 1 .3.2.6.3 1 .3zm12.1 2.8c-1.8 0-3.2-.5-4.1-1.5-1-1.1-1.5-2.6-1.5-4.6v-1c0-2.1.4-3.7 1.3-4.9 1-1 2.3-1.7 4-1.7 1.6 0 2.9.6 3.7 1.6.8 1.1 1.3 2.7 1.3 4.8v1.7h-6.9c0 1 .3 1.6.7 2.1.3.5 1 .7 1.7.7 1.2 0 2.1-.4 3-1.2l1.3 2c-.5.7-1 1.1-1.9 1.5-.8.4-1.7.5-2.6.5zm-2.2-8h3.5v-.4c0-.8-.2-1.4-.4-1.8-.2-.4-.7-.6-1.3-.6-.6 0-1 .2-1.3.7-.3.4-.4 1-.5 2zm14.8 7.8V11.2h4.7c2 0 3.7.7 5 2a7.7 7.7 0 0 1 1.8 5.4v2.9c0 2.3-.6 4.2-1.8 5.5-1.3 1.3-3 2-5.1 2h-4.6zm3.6-14.8V26h1c1.2 0 2-.3 2.6-1 .4-.6.7-1.6.7-3.2v-3c0-1.7-.2-2.9-.7-3.5-.4-.7-1.2-1-2.3-1h-1.3zm15.7 15c-1.8 0-3.2-.5-4.2-1.5-1-1.1-1.5-2.6-1.5-4.6v-1c0-2.1.5-3.7 1.4-4.9.9-1 2.2-1.7 4-1.7 1.6 0 2.8.6 3.7 1.6.8 1.1 1.2 2.7 1.2 4.8v1.7h-6.8c0 1 .2 1.6.6 2.1.4.5 1 .7 1.8.7 1.1 0 2.1-.4 2.9-1.2l1.3 2c-.4.7-1 1.1-1.8 1.5-.8.4-1.7.5-2.6.5zm-2.2-8h3.4v-.4c0-.8-.1-1.4-.3-1.8-.3-.4-.7-.6-1.3-.6-.6 0-1 .2-1.3.7-.3.4-.5 1-.5 2zm13 3l1.6-8.4h3.6L182 29h-3.3L175 15.8h3.6l1.7 8.3zm10.5 4.8h-3.5V15.8h3.5V29zm-3.6-16.6c0-.6.1-1 .5-1.3.3-.4.8-.6 1.3-.6.6 0 1 .2 1.4.6.3.3.5.7.5 1.3 0 .5-.2 1-.5 1.3-.3.3-.8.5-1.4.5-.5 0-1-.2-1.3-.5-.4-.4-.5-.8-.5-1.3zm11 14c1 0 1.5-.7 1.6-2h3.2c0 1.5-.5 2.6-1.3 3.5-.9.9-2 1.3-3.4 1.3-1.7 0-3-.5-3.9-1.5-.9-1.1-1.3-2.7-1.4-4.7v-1c0-2.1.5-3.7 1.4-4.8.8-1.1 2.1-1.7 3.9-1.7 1.4 0 2.6.5 3.4 1.4.9.9 1.3 2.2 1.3 3.8h-3.3c0-.7 0-1.3-.3-1.7-.3-.4-.6-.6-1.2-.6s-1 .2-1.3.7c-.2.4-.4 1.2-.4 2.4V23c0 1 0 1.8.2 2.2 0 .5.2.8.5 1 .2.2.6.3 1 .3zm12 2.8c-1.7 0-3-.5-4-1.5-1-1.1-1.6-2.6-1.6-4.6v-1c0-2.1.5-3.7 1.4-4.9 1-1 2.2-1.7 4-1.7 1.6 0 2.8.6 3.7 1.6.8 1.1 1.2 2.7 1.3 4.8v1.7h-7c.1 1 .4 1.6.7 2.1.4.5 1 .7 1.8.7 1.2 0 2.1-.4 2.9-1.2l1.4 2c-.5.7-1 1.1-1.9 1.5-.8.4-1.7.5-2.6.5zm-2-8h3.4v-.4c0-.8-.2-1.4-.4-1.8-.3-.4-.7-.6-1.3-.6-.6 0-1 .2-1.3.7-.3.4-.4 1-.5 2z" fill="#203C42"/><path d="M71 45l1.2-4.3h1.6L71.2 48c-.4 1-1 1.6-2 1.6l-.6-.1v-1.1h.2l.9-.2.4-.7.2-.5-2.2-6.3h1.5L71 45zm7.3.2l2-4.5H82V47h-1.4v-4.2L78.8 47h-1l-1.7-4.2V47h-1.4v-6.3h1.8l1.8 4.5zM89 47h-1.5v-2.6h-2.4V47h-1.4v-6.3H85v2.6h2.4v-2.6H89V47zm3-4.3h1.4c.5 0 1 0 1.4.2a2 2 0 0 1 1.2 2 2 2 0 0 1-.7 1.5c-.5.4-1.1.6-1.9.6h-2.8v-6.3H92v2zm6.4 4.3H97v-6.3h1.4V47zM92 43.8v2h1.4c.4 0 .6 0 .8-.2.2-.2.3-.4.3-.7a1 1 0 0 0-.3-.8c-.2-.2-.4-.3-.8-.3H92zm11 3.3a3 3 0 0 1-2.3-.8c-.5-.6-.8-1.4-.8-2.3v-.2c0-.6.1-1.2.4-1.7.2-.5.6-.9 1-1.1.4-.3 1-.5 1.5-.5.8 0 1.5.3 2 .9.4.5.7 1.3.7 2.3v.6h-4.2c0 .5.3 1 .6 1.2.3.3.7.5 1.1.5a2 2 0 0 0 1.6-.8l.8.7-1 1-1.5.2zm-.2-5.4c-.4 0-.7.1-1 .4-.2.3-.4.6-.4 1.1h2.7c0-.5-.2-.9-.4-1.1-.2-.3-.5-.4-1-.4zm11.8 0h-2V47H111v-5.2h-2v-1.1h5.5v1zm3.3 5.4a3 3 0 0 1-2.2-.8c-.5-.6-.8-1.4-.8-2.3v-.2c0-.6.1-1.2.4-1.7.2-.5.6-.9 1-1.1.4-.3 1-.5 1.5-.5.8 0 1.5.3 2 .9.4.5.7 1.3.7 2.3v.6h-4.2c0 .5.3 1 .6 1.2.3.3.7.5 1.1.5a2 2 0 0 0 1.6-.8l.8.7-1 1-1.5.2zm-.1-5.4c-.4 0-.7.1-1 .4-.2.3-.4.6-.4 1.1h2.7c0-.5-.2-.9-.4-1.1-.2-.3-.5-.4-1-.4zm6 1l1.3-2h1.6l-2 3 2 3.3h-1.5l-1.3-2.2-1.3 2.2H121l2-3.2-1.9-3.1h1.6l1.2 2zM133 47h-1.4v-2.6H129V47h-1.4v-6.3h1.4v2.6h2.5v-2.6h1.4V47zm1.3-3.2c0-.6 0-1.2.3-1.7s.6-.9 1-1.2a3 3 0 0 1 1.6-.4c.8 0 1.5.3 2 .9.6.5.9 1.3 1 2.2v.3c0 .6-.2 1.2-.4 1.7-.3.5-.6.8-1 1.1a3 3 0 0 1-1.6.4c-.9 0-1.6-.3-2.1-.9-.6-.6-.8-1.4-.8-2.4zm1.4 0c0 .7.1 1.3.4 1.6.3.4.6.6 1.1.6.5 0 .9-.2 1.1-.6.3-.4.4-1 .4-1.6 0-.7-.1-1.2-.4-1.6-.3-.3-.6-.5-1.1-.5-.5 0-.8.2-1.1.5-.3.4-.4 1-.4 1.7zm11-3.1V47h-1.5v-5.2h-1.8V44c-.2 1-.4 1.8-.7 2.3-.3.5-.8.7-1.5.7h-.5v-1.2h.3c.3 0 .6-.2.7-.6l.3-1.8v-2.7h4.6zm1.2 3c0-.5.1-1.1.4-1.6.2-.5.6-.9 1-1.2.4-.2 1-.4 1.5-.4.9 0 1.6.3 2.1.9.5.5.8 1.3.9 2.2v.3c0 .6-.1 1.2-.4 1.7-.2.5-.6.8-1 1.1a3 3 0 0 1-1.6.4c-.8 0-1.6-.3-2.1-.9-.5-.6-.8-1.4-.8-2.4zm1.4.2c0 .6.2 1.2.4 1.5.3.4.7.6 1.1.6.5 0 .9-.2 1.2-.6.2-.4.4-1 .4-1.6 0-.7-.2-1.2-.4-1.6-.3-.3-.7-.5-1.2-.5-.4 0-.8.2-1 .5-.3.4-.5 1-.5 1.7zm10-2h-2.8V47H155v-6.3h4.2v1.1zm4.7-1.2h1.4V47H164v-4.2l-2.5 4.2H160v-6.3h1.4v4.2l2.5-4.2zm6.9 0h1.4V47h-1.4v-4.2l-2.5 4.2H167v-6.3h1.4v4.2l2.5-4.2z" fill="#788891"/><path d="M32 13.9c1.2 0 2.1.7 2.5 1.7h9a2.6 2.6 0 1 1 0 1.7h-9a2.6 2.6 0 1 1-2.4-3.4zm14 3.4a.9.9 0 1 0 0-1.7.9.9 0 0 0 0 1.7zm-14 0a.9.9 0 1 0 0-1.7.9.9 0 0 0 0 1.7z" fill="#00B2FF"/><path d="M25.1 19.2V14c0-.3.1-.5.3-.6l3.5-3.5c.1-.2.3-.3.6-.3h2.7a2.6 2.6 0 1 1 0 1.8h-2.4l-3 3v5a2.6 2.6 0 1 1-1.7 0zm9.6-8a.9.9 0 1 0 0-1.7.9.9 0 0 0 0 1.8zM26 22.6a.9.9 0 1 0 0-1.7.9.9 0 0 0 0 1.7zM9.5 22.5c.4 0 .8.1 1.1.3l1.5-1.5V13c0-.2.1-.5.3-.6L21 3.7c-.2-.3-.3-.7-.3-1.1a2.6 2.6 0 1 1 2.6 2.6c-.4 0-.8-.1-1.1-.3l-8.4 8.5v8.3l-.3.6L12 24l.2 1.1a2.6 2.6 0 1 1-2.6-2.6zm13.9-19a.9.9 0 1 0 0-1.8.9.9 0 0 0 0 1.8zM9.5 26a.9.9 0 1 0 0-1.7.9.9 0 0 0 0 1.7zM1.7 12.3V8.7c0-.3.1-.5.3-.6L8 2c.2-.2.4-.3.7-.3h4.5a2.6 2.6 0 1 1 0 1.8H9L3.5 9v3.3a2.6 2.6 0 1 1-1.8 0zm13.9-8.8a.9.9 0 1 0 0-1.8.9.9 0 0 0 0 1.8zm-13 12.1a.9.9 0 1 0 0-1.7.9.9 0 0 0 0 1.7zM13.9 47V34.5a2.6 2.6 0 1 1 3.3-3.3h9c.3-1 1.3-1.7 2.4-1.7 1.1 0 2 .7 2.4 1.7h5l3.3-3.2c-.2-.4-.3-.7-.3-1.1a2.6 2.6 0 1 1 2.6 2.6c-.4 0-.8-.1-1.1-.3L37 32.7l-.6.2H31c-.3 1-1.3 1.8-2.4 1.8-1.1 0-2-.8-2.4-1.8h-9c-.3.8-.9 1.3-1.6 1.6V47a2.6 2.6 0 1 1-1.7 0zm27.7-19.3a.9.9 0 1 0 0-1.7.9.9 0 0 0 0 1.7zm-13 5.2a.9.9 0 1 0 0-1.7.9.9 0 0 0 0 1.7zM14.7 50.3a.9.9 0 1 0 0-1.8.9.9 0 0 0 0 1.8zm0-17.4a.9.9 0 1 0 0-1.7.9.9 0 0 0 0 1.7z" fill="#00B2FF"/><path d="M18.2 17.5v-2.8c0-.2 0-.4.3-.6L28.9 3.7c-.2-.3-.3-.7-.3-1.1 0-1.4 1.2-2.6 2.6-2.6 1.1 0 2 .7 2.4 1.7h3.7c.4 0 .8.4.8.9v2.2l3.3 3.3c.3-.2.7-.3 1-.3a2.6 2.6 0 1 1-2.5 2.6c0-.4 0-.8.2-1.1l-3.4-3.5a.9.9 0 0 1-.3-.6V3.5h-2.8a2.6 2.6 0 0 1-3.5 1.4L19.9 15.1v2.4a2.6 2.6 0 1 1-1.7 0zm24.3-6.2a.9.9 0 1 0 0-1.8.9.9 0 0 0 0 1.8zM31.2 3.5a.9.9 0 1 0 0-1.8.9.9 0 0 0 0 1.8zM19.1 20.8a.9.9 0 1 0 0-1.7.9.9 0 0 0 0 1.7z" fill="#00B2FF"/><path d="M20.8 24.3c1.1 0 2 .7 2.4 1.7h10.2l5-5 .6-.2h9.2l2-2v-7.2L43.7 5c-.4.2-.7.3-1.1.3A2.6 2.6 0 1 1 45 2.6c0 .4-.1.8-.3 1.1l7 7 .2.6V19c0 .2 0 .4-.3.6l-2.6 2.6-.6.2h-9.1l-5 5-.6.2H23.2a2.6 2.6 0 1 1-2.4-3.4zM42.5 1.7a.9.9 0 1 0 0 1.8.9.9 0 0 0 0-1.8zm-21.7 26a.9.9 0 1 0 0-1.7.9.9 0 0 0 0 1.7zM2.6 20.8c.4 0 .8.1 1.1.3L7 17.8v-5a2.6 2.6 0 1 1 1.8 0v5.4c0 .2-.1.5-.3.6L5 22.3a2.6 2.6 0 0 1-1.4 3.5v.7l6.6 6.7c.2.1.3.4.3.6v1c1 .4 1.7 1.3 1.7 2.5 0 1-.7 2-1.7 2.4v2a2.6 2.6 0 1 1-1.7 0v-2c-1-.4-1.8-1.3-1.8-2.4 0-1.2.8-2.1 1.8-2.5v-.6L2 27.5a.9.9 0 0 1-.3-.6v-1a2.6 2.6 0 0 1 .9-5.1zm5.2-9.5a.9.9 0 1 0 0-1.8.9.9 0 0 0 0 1.8zM9.5 45a.9.9 0 1 0 0-1.8.9.9 0 0 0 0 1.8zm0-7a.9.9 0 1 0 0-1.7.9.9 0 0 0 0 1.7zM2.6 24.3a.9.9 0 1 0 0-1.8.9.9 0 0 0 0 1.8z" fill="#00B2FF"/>
</symbol>

<symbol id="logo-footer-desktop" viewBox="0 0 216 52">
<path d="M32 13.9c1.2 0 2.1.7 2.5 1.7h9a2.6 2.6 0 1 1 0 1.7h-9a2.6 2.6 0 1 1-2.4-3.4zm14 3.4a.9.9 0 1 0 0-1.7.9.9 0 0 0 0 1.7zm-14 0a.9.9 0 1 0 0-1.7.9.9 0 0 0 0 1.7z" fill="#00B2FF"/><path d="M25.1 19.2V14c0-.3.1-.5.3-.6l3.5-3.5c.1-.2.3-.3.6-.3h2.7a2.6 2.6 0 1 1 0 1.8h-2.4l-3 3v5a2.6 2.6 0 1 1-1.7 0zm9.6-8a.9.9 0 1 0 0-1.7.9.9 0 0 0 0 1.8zM26 22.6a.9.9 0 1 0 0-1.7.9.9 0 0 0 0 1.7zM9.5 22.5c.4 0 .8.1 1.1.3l1.5-1.5V13c0-.2.1-.5.3-.6L21 3.7c-.2-.3-.3-.7-.3-1.1a2.6 2.6 0 1 1 2.6 2.6c-.4 0-.8-.1-1.1-.3l-8.4 8.5v8.3l-.3.6L12 24l.2 1.1a2.6 2.6 0 1 1-2.6-2.6zm13.9-19a.9.9 0 1 0 0-1.8.9.9 0 0 0 0 1.8zM9.5 26a.9.9 0 1 0 0-1.7.9.9 0 0 0 0 1.7zM1.7 12.3V8.7c0-.3.1-.5.3-.6L8 2c.2-.2.4-.3.7-.3h4.5a2.6 2.6 0 1 1 0 1.8H9L3.5 9v3.3a2.6 2.6 0 1 1-1.8 0zm13.9-8.8a.9.9 0 1 0 0-1.8.9.9 0 0 0 0 1.8zm-13 12.1a.9.9 0 1 0 0-1.7.9.9 0 0 0 0 1.7zM13.9 47V34.5a2.6 2.6 0 1 1 3.3-3.3h9c.3-1 1.3-1.7 2.4-1.7 1.1 0 2 .7 2.4 1.7h5l3.3-3.2c-.2-.4-.3-.7-.3-1.1a2.6 2.6 0 1 1 2.6 2.6c-.4 0-.8-.1-1.1-.3L37 32.7l-.6.2H31c-.3 1-1.3 1.8-2.4 1.8-1.1 0-2-.8-2.4-1.8h-9c-.3.8-.9 1.3-1.6 1.6V47a2.6 2.6 0 1 1-1.7 0zm27.7-19.3a.9.9 0 1 0 0-1.7.9.9 0 0 0 0 1.7zm-13 5.2a.9.9 0 1 0 0-1.7.9.9 0 0 0 0 1.7zM14.7 50.3a.9.9 0 1 0 0-1.8.9.9 0 0 0 0 1.8zm0-17.4a.9.9 0 1 0 0-1.7.9.9 0 0 0 0 1.7z" fill="#00B2FF"/><path d="M18.2 17.5v-2.8c0-.2 0-.4.3-.6L28.9 3.7c-.2-.3-.3-.7-.3-1.1 0-1.4 1.2-2.6 2.6-2.6 1.1 0 2 .7 2.4 1.7h3.7c.4 0 .8.4.8.9v2.2l3.3 3.3c.3-.2.7-.3 1-.3a2.6 2.6 0 1 1-2.5 2.6c0-.4 0-.8.2-1.1l-3.4-3.5a.9.9 0 0 1-.3-.6V3.5h-2.8a2.6 2.6 0 0 1-3.5 1.4L19.9 15.1v2.4a2.6 2.6 0 1 1-1.7 0zm24.3-6.2a.9.9 0 1 0 0-1.8.9.9 0 0 0 0 1.8zM31.2 3.5a.9.9 0 1 0 0-1.8.9.9 0 0 0 0 1.8zM19.1 20.8a.9.9 0 1 0 0-1.7.9.9 0 0 0 0 1.7z" fill="#00B2FF"/><path d="M20.8 24.3c1.1 0 2 .7 2.4 1.7h10.2l5-5 .6-.2h9.2l2-2v-7.2L43.7 5c-.4.2-.7.3-1.1.3A2.6 2.6 0 1 1 45 2.6c0 .4-.1.8-.3 1.1l7 7 .2.6V19c0 .2 0 .4-.3.6l-2.6 2.6-.6.2h-9.1l-5 5-.6.2H23.2a2.6 2.6 0 1 1-2.4-3.4zM42.5 1.7a.9.9 0 1 0 0 1.8.9.9 0 0 0 0-1.8zm-21.7 26a.9.9 0 1 0 0-1.7.9.9 0 0 0 0 1.7zM2.6 20.8c.4 0 .8.1 1.1.3L7 17.8v-5a2.6 2.6 0 1 1 1.8 0v5.4c0 .2-.1.5-.3.6L5 22.3a2.6 2.6 0 0 1-1.4 3.5v.7l6.6 6.7c.2.1.3.4.3.6v1c1 .4 1.7 1.3 1.7 2.5 0 1-.7 2-1.7 2.4v2a2.6 2.6 0 1 1-1.7 0v-2c-1-.4-1.8-1.3-1.8-2.4 0-1.2.8-2.1 1.8-2.5v-.6L2 27.5a.9.9 0 0 1-.3-.6v-1a2.6 2.6 0 0 1 .9-5.1zm5.2-9.5a.9.9 0 1 0 0-1.8.9.9 0 0 0 0 1.8zM9.5 45a.9.9 0 1 0 0-1.8.9.9 0 0 0 0 1.8zm0-7a.9.9 0 1 0 0-1.7.9.9 0 0 0 0 1.7zM2.6 24.3a.9.9 0 1 0 0-1.8.9.9 0 0 0 0 1.8z" fill="#00B2FF"/><path d="M77 24.3c0-.7-.3-1.2-.6-1.6-.4-.4-1-.8-2-1.2-1.8-.6-3.1-1.4-3.9-2.3-.8-1-1.2-2-1.2-3.2 0-1.5.6-2.7 1.6-3.7a6 6 0 0 1 4-1.3c1.2 0 2.1.2 3 .7.9.4 1.5 1 2 2 .4.8.7 1.7.7 2.8H77c0-.9-.2-1.5-.6-2-.3-.4-.8-.6-1.5-.6a2 2 0 0 0-1.4.6 2 2 0 0 0-.6 1.5c0 .5.2 1 .6 1.3.4.4 1.1.8 2 1.2 1.8.7 3 1.4 3.9 2.3.8 1 1.1 2.1 1.1 3.5 0 1.6-.4 2.8-1.4 3.6-1 1-2.4 1.3-4 1.3a7 7 0 0 1-3.2-.7 5.4 5.4 0 0 1-3-5.1h3.6c0 1 .2 1.8.6 2.2.4.5 1 .7 2 .7 1.2 0 1.8-.6 1.8-2zm11 5c-1.7 0-3-.6-4-1.6-1-1.1-1.5-2.6-1.5-4.6v-1c0-2.1.4-3.7 1.3-4.9 1-1 2.2-1.7 4-1.7 1.6 0 2.8.6 3.7 1.6.8 1.1 1.3 2.7 1.3 4.8v1.7h-6.9c0 1 .3 1.6.6 2.1.4.5 1 .7 1.8.7 1.2 0 2.1-.4 3-1.2l1.3 2c-.5.7-1 1.1-1.9 1.5-.8.4-1.7.5-2.6.5zM86 21h3.4v-.3c0-.8-.2-1.4-.4-1.8-.3-.4-.7-.6-1.3-.6-.6 0-1 .2-1.3.7-.3.4-.4 1-.5 2zm15.2-2h-1.1c-1 0-1.6.3-2 1.2V29h-3.4V15.8H98v1.4c.6-1 1.4-1.7 2.3-1.7l1 .2v3.4zm6.4 5l1.6-8.3h3.6L109.2 29H106l-3.6-13.2h3.6l1.7 8.3zM118 29h-3.5V15.8h3.5V29zm-3.6-16.6c0-.6.1-1 .5-1.3.3-.4.8-.6 1.4-.6.5 0 1 .2 1.3.6.4.3.5.7.5 1.3 0 .5-.1 1-.5 1.3-.3.3-.8.5-1.3.5-.6 0-1-.2-1.4-.5-.4-.4-.5-.8-.5-1.3zm11 14c1 0 1.6-.7 1.6-2h3.2c0 1.5-.4 2.6-1.3 3.5-.9.9-2 1.3-3.4 1.3-1.7 0-3-.5-3.9-1.5-.9-1.1-1.3-2.7-1.3-4.7v-1c0-2.1.4-3.7 1.3-4.8.9-1.1 2.2-1.7 3.9-1.7 1.4 0 2.6.5 3.4 1.4.9.9 1.3 2.2 1.3 3.8h-3.2c0-.7-.2-1.3-.4-1.7-.2-.4-.6-.6-1.2-.6s-1 .2-1.3.7c-.2.4-.4 1.2-.4 2.4V23c0 1 0 1.8.2 2.2 0 .5.3.8.5 1 .3.2.6.3 1 .3zm12.1 2.8c-1.8 0-3.2-.5-4.1-1.5-1-1.1-1.5-2.6-1.5-4.6v-1c0-2.1.4-3.7 1.3-4.9 1-1 2.3-1.7 4-1.7 1.6 0 2.9.6 3.7 1.6.8 1.1 1.3 2.7 1.3 4.8v1.7h-6.9c0 1 .3 1.6.7 2.1.3.5 1 .7 1.7.7 1.2 0 2.1-.4 3-1.2l1.3 2c-.5.7-1 1.1-1.9 1.5-.8.4-1.7.5-2.6.5zm-2.2-8h3.5v-.4c0-.8-.2-1.4-.4-1.8-.2-.4-.7-.6-1.3-.6-.6 0-1 .2-1.3.7-.3.4-.4 1-.5 2zm14.8 7.8V11.2h4.7c2 0 3.7.7 5 2a7.7 7.7 0 0 1 1.8 5.4v2.9c0 2.3-.6 4.2-1.8 5.5-1.3 1.3-3 2-5.1 2h-4.6zm3.6-14.8V26h1c1.2 0 2-.3 2.6-1 .4-.6.7-1.6.7-3.2v-3c0-1.7-.2-2.9-.7-3.5-.4-.7-1.2-1-2.3-1h-1.3zm15.7 15c-1.8 0-3.2-.5-4.2-1.5-1-1.1-1.5-2.6-1.5-4.6v-1c0-2.1.5-3.7 1.4-4.9.9-1 2.2-1.7 4-1.7 1.6 0 2.8.6 3.7 1.6.8 1.1 1.2 2.7 1.2 4.8v1.7h-6.8c0 1 .2 1.6.6 2.1.4.5 1 .7 1.8.7 1.1 0 2.1-.4 2.9-1.2l1.3 2c-.4.7-1 1.1-1.8 1.5-.8.4-1.7.5-2.6.5zm-2.2-8h3.4v-.4c0-.8-.1-1.4-.3-1.8-.3-.4-.7-.6-1.3-.6-.6 0-1 .2-1.3.7-.3.4-.5 1-.5 2zm13 3l1.6-8.4h3.6L182 29h-3.3L175 15.8h3.6l1.7 8.3zm10.5 4.8h-3.5V15.8h3.5V29zm-3.6-16.6c0-.6.1-1 .5-1.3.3-.4.8-.6 1.3-.6.6 0 1 .2 1.4.6.3.3.5.7.5 1.3 0 .5-.2 1-.5 1.3-.3.3-.8.5-1.4.5-.5 0-1-.2-1.3-.5-.4-.4-.5-.8-.5-1.3zm11 14c1 0 1.5-.7 1.6-2h3.2c0 1.5-.5 2.6-1.3 3.5-.9.9-2 1.3-3.4 1.3-1.7 0-3-.5-3.9-1.5-.9-1.1-1.3-2.7-1.4-4.7v-1c0-2.1.5-3.7 1.4-4.8.8-1.1 2.1-1.7 3.9-1.7 1.4 0 2.6.5 3.4 1.4.9.9 1.3 2.2 1.3 3.8h-3.3c0-.7 0-1.3-.3-1.7-.3-.4-.6-.6-1.2-.6s-1 .2-1.3.7c-.2.4-.4 1.2-.4 2.4V23c0 1 0 1.8.2 2.2 0 .5.2.8.5 1 .2.2.6.3 1 .3zm12 2.8c-1.7 0-3-.5-4-1.5-1-1.1-1.6-2.6-1.6-4.6v-1c0-2.1.5-3.7 1.4-4.9 1-1 2.2-1.7 4-1.7 1.6 0 2.8.6 3.7 1.6.8 1.1 1.2 2.7 1.3 4.8v1.7h-7c.1 1 .4 1.6.7 2.1.4.5 1 .7 1.8.7 1.2 0 2.1-.4 2.9-1.2l1.4 2c-.5.7-1 1.1-1.9 1.5-.8.4-1.7.5-2.6.5zm-2-8h3.4v-.4c0-.8-.2-1.4-.4-1.8-.3-.4-.7-.6-1.3-.6-.6 0-1 .2-1.3.7-.3.4-.4 1-.5 2z" fill="#203C42"/><path d="M71 45l1.2-4.3h1.6L71.2 48c-.4 1-1 1.6-2 1.6l-.6-.1v-1.1h.2l.9-.2.4-.7.2-.5-2.2-6.3h1.5L71 45zm7.3.2l2-4.5H82V47h-1.4v-4.2L78.8 47h-1l-1.7-4.2V47h-1.4v-6.3h1.8l1.8 4.5zM89 47h-1.5v-2.6h-2.4V47h-1.4v-6.3H85v2.6h2.4v-2.6H89V47zm3-4.3h1.4c.5 0 1 0 1.4.2a2 2 0 0 1 1.2 2 2 2 0 0 1-.7 1.5c-.5.4-1.1.6-1.9.6h-2.8v-6.3H92v2zm6.4 4.3H97v-6.3h1.4V47zM92 43.8v2h1.4c.4 0 .6 0 .8-.2.2-.2.3-.4.3-.7a1 1 0 0 0-.3-.8c-.2-.2-.4-.3-.8-.3H92zm11 3.3a3 3 0 0 1-2.3-.8c-.5-.6-.8-1.4-.8-2.3v-.2c0-.6.1-1.2.4-1.7.2-.5.6-.9 1-1.1.4-.3 1-.5 1.5-.5.8 0 1.5.3 2 .9.4.5.7 1.3.7 2.3v.6h-4.2c0 .5.3 1 .6 1.2.3.3.7.5 1.1.5a2 2 0 0 0 1.6-.8l.8.7-1 1-1.5.2zm-.2-5.4c-.4 0-.7.1-1 .4-.2.3-.4.6-.4 1.1h2.7c0-.5-.2-.9-.4-1.1-.2-.3-.5-.4-1-.4zm11.8 0h-2V47H111v-5.2h-2v-1.1h5.5v1zm3.3 5.4a3 3 0 0 1-2.2-.8c-.5-.6-.8-1.4-.8-2.3v-.2c0-.6.1-1.2.4-1.7.2-.5.6-.9 1-1.1.4-.3 1-.5 1.5-.5.8 0 1.5.3 2 .9.4.5.7 1.3.7 2.3v.6h-4.2c0 .5.3 1 .6 1.2.3.3.7.5 1.1.5a2 2 0 0 0 1.6-.8l.8.7-1 1-1.5.2zm-.1-5.4c-.4 0-.7.1-1 .4-.2.3-.4.6-.4 1.1h2.7c0-.5-.2-.9-.4-1.1-.2-.3-.5-.4-1-.4zm6 1l1.3-2h1.6l-2 3 2 3.3h-1.5l-1.3-2.2-1.3 2.2H121l2-3.2-1.9-3.1h1.6l1.2 2zM133 47h-1.4v-2.6H129V47h-1.4v-6.3h1.4v2.6h2.5v-2.6h1.4V47zm1.3-3.2c0-.6 0-1.2.3-1.7s.6-.9 1-1.2a3 3 0 0 1 1.6-.4c.8 0 1.5.3 2 .9.6.5.9 1.3 1 2.2v.3c0 .6-.2 1.2-.4 1.7-.3.5-.6.8-1 1.1a3 3 0 0 1-1.6.4c-.9 0-1.6-.3-2.1-.9-.6-.6-.8-1.4-.8-2.4zm1.4 0c0 .7.1 1.3.4 1.6.3.4.6.6 1.1.6.5 0 .9-.2 1.1-.6.3-.4.4-1 .4-1.6 0-.7-.1-1.2-.4-1.6-.3-.3-.6-.5-1.1-.5-.5 0-.8.2-1.1.5-.3.4-.4 1-.4 1.7zm11-3.1V47h-1.5v-5.2h-1.8V44c-.2 1-.4 1.8-.7 2.3-.3.5-.8.7-1.5.7h-.5v-1.2h.3c.3 0 .6-.2.7-.6l.3-1.8v-2.7h4.6zm1.2 3c0-.5.1-1.1.4-1.6.2-.5.6-.9 1-1.2.4-.2 1-.4 1.5-.4.9 0 1.6.3 2.1.9.5.5.8 1.3.9 2.2v.3c0 .6-.1 1.2-.4 1.7-.2.5-.6.8-1 1.1a3 3 0 0 1-1.6.4c-.8 0-1.6-.3-2.1-.9-.5-.6-.8-1.4-.8-2.4zm1.4.2c0 .6.2 1.2.4 1.5.3.4.7.6 1.1.6.5 0 .9-.2 1.2-.6.2-.4.4-1 .4-1.6 0-.7-.2-1.2-.4-1.6-.3-.3-.7-.5-1.2-.5-.4 0-.8.2-1 .5-.3.4-.5 1-.5 1.7zm10-2h-2.8V47H155v-6.3h4.2v1.1zm4.7-1.2h1.4V47H164v-4.2l-2.5 4.2H160v-6.3h1.4v4.2l2.5-4.2zm6.9 0h1.4V47h-1.4v-4.2l-2.5 4.2H167v-6.3h1.4v4.2l2.5-4.2z" fill="#788891"/>
</symbol>

<symbol id="logo-footer-tablet" viewBox="0 0 216 52">
<path d="M77 24.3c0-.7-.3-1.2-.6-1.6-.4-.4-1-.8-2-1.2-1.8-.6-3.1-1.4-3.9-2.3-.8-1-1.2-2-1.2-3.2 0-1.5.6-2.7 1.6-3.7a6 6 0 0 1 4-1.3c1.2 0 2.1.2 3 .7.9.4 1.5 1 2 2 .4.8.7 1.7.7 2.8H77c0-.9-.2-1.5-.6-2-.3-.4-.8-.6-1.5-.6a2 2 0 0 0-1.4.6 2 2 0 0 0-.6 1.5c0 .5.2 1 .6 1.3.4.4 1.1.8 2 1.2 1.8.7 3 1.4 3.9 2.3.8 1 1.1 2.1 1.1 3.5 0 1.6-.4 2.8-1.4 3.6-1 1-2.4 1.3-4 1.3a7 7 0 0 1-3.2-.7 5.4 5.4 0 0 1-3-5.1h3.6c0 1 .2 1.8.6 2.2.4.5 1 .7 2 .7 1.2 0 1.8-.6 1.8-2zm11 5c-1.7 0-3-.6-4-1.6-1-1.1-1.5-2.6-1.5-4.6v-1c0-2.1.4-3.7 1.3-4.9 1-1 2.2-1.7 4-1.7 1.6 0 2.8.6 3.7 1.6.8 1.1 1.3 2.7 1.3 4.8v1.7h-6.9c0 1 .3 1.6.6 2.1.4.5 1 .7 1.8.7 1.2 0 2.1-.4 3-1.2l1.3 2c-.5.7-1 1.1-1.9 1.5-.8.4-1.7.5-2.6.5zM86 21h3.4v-.3c0-.8-.2-1.4-.4-1.8-.3-.4-.7-.6-1.3-.6-.6 0-1 .2-1.3.7-.3.4-.4 1-.5 2zm15.2-2h-1.1c-1 0-1.6.3-2 1.2V29h-3.4V15.8H98v1.4c.6-1 1.4-1.7 2.3-1.7l1 .2v3.4zm6.4 5l1.6-8.3h3.6L109.2 29H106l-3.6-13.2h3.6l1.7 8.3zM118 29h-3.5V15.8h3.5V29zm-3.6-16.6c0-.6.1-1 .5-1.3.3-.4.8-.6 1.4-.6.5 0 1 .2 1.3.6.4.3.5.7.5 1.3 0 .5-.1 1-.5 1.3-.3.3-.8.5-1.3.5-.6 0-1-.2-1.4-.5-.4-.4-.5-.8-.5-1.3zm11 14c1 0 1.6-.7 1.6-2h3.2c0 1.5-.4 2.6-1.3 3.5-.9.9-2 1.3-3.4 1.3-1.7 0-3-.5-3.9-1.5-.9-1.1-1.3-2.7-1.3-4.7v-1c0-2.1.4-3.7 1.3-4.8.9-1.1 2.2-1.7 3.9-1.7 1.4 0 2.6.5 3.4 1.4.9.9 1.3 2.2 1.3 3.8h-3.2c0-.7-.2-1.3-.4-1.7-.2-.4-.6-.6-1.2-.6s-1 .2-1.3.7c-.2.4-.4 1.2-.4 2.4V23c0 1 0 1.8.2 2.2 0 .5.3.8.5 1 .3.2.6.3 1 .3zm12.1 2.8c-1.8 0-3.2-.5-4.1-1.5-1-1.1-1.5-2.6-1.5-4.6v-1c0-2.1.4-3.7 1.3-4.9 1-1 2.3-1.7 4-1.7 1.6 0 2.9.6 3.7 1.6.8 1.1 1.3 2.7 1.3 4.8v1.7h-6.9c0 1 .3 1.6.7 2.1.3.5 1 .7 1.7.7 1.2 0 2.1-.4 3-1.2l1.3 2c-.5.7-1 1.1-1.9 1.5-.8.4-1.7.5-2.6.5zm-2.2-8h3.5v-.4c0-.8-.2-1.4-.4-1.8-.2-.4-.7-.6-1.3-.6-.6 0-1 .2-1.3.7-.3.4-.4 1-.5 2zm14.8 7.8V11.2h4.7c2 0 3.7.7 5 2a7.7 7.7 0 0 1 1.8 5.4v2.9c0 2.3-.6 4.2-1.8 5.5-1.3 1.3-3 2-5.1 2h-4.6zm3.6-14.8V26h1c1.2 0 2-.3 2.6-1 .4-.6.7-1.6.7-3.2v-3c0-1.7-.2-2.9-.7-3.5-.4-.7-1.2-1-2.3-1h-1.3zm15.7 15c-1.8 0-3.2-.5-4.2-1.5-1-1.1-1.5-2.6-1.5-4.6v-1c0-2.1.5-3.7 1.4-4.9.9-1 2.2-1.7 4-1.7 1.6 0 2.8.6 3.7 1.6.8 1.1 1.2 2.7 1.2 4.8v1.7h-6.8c0 1 .2 1.6.6 2.1.4.5 1 .7 1.8.7 1.1 0 2.1-.4 2.9-1.2l1.3 2c-.4.7-1 1.1-1.8 1.5-.8.4-1.7.5-2.6.5zm-2.2-8h3.4v-.4c0-.8-.1-1.4-.3-1.8-.3-.4-.7-.6-1.3-.6-.6 0-1 .2-1.3.7-.3.4-.5 1-.5 2zm13 3l1.6-8.4h3.6L182 29h-3.3L175 15.8h3.6l1.7 8.3zm10.5 4.8h-3.5V15.8h3.5V29zm-3.6-16.6c0-.6.1-1 .5-1.3.3-.4.8-.6 1.3-.6.6 0 1 .2 1.4.6.3.3.5.7.5 1.3 0 .5-.2 1-.5 1.3-.3.3-.8.5-1.4.5-.5 0-1-.2-1.3-.5-.4-.4-.5-.8-.5-1.3zm11 14c1 0 1.5-.7 1.6-2h3.2c0 1.5-.5 2.6-1.3 3.5-.9.9-2 1.3-3.4 1.3-1.7 0-3-.5-3.9-1.5-.9-1.1-1.3-2.7-1.4-4.7v-1c0-2.1.5-3.7 1.4-4.8.8-1.1 2.1-1.7 3.9-1.7 1.4 0 2.6.5 3.4 1.4.9.9 1.3 2.2 1.3 3.8h-3.3c0-.7 0-1.3-.3-1.7-.3-.4-.6-.6-1.2-.6s-1 .2-1.3.7c-.2.4-.4 1.2-.4 2.4V23c0 1 0 1.8.2 2.2 0 .5.2.8.5 1 .2.2.6.3 1 .3zm12 2.8c-1.7 0-3-.5-4-1.5-1-1.1-1.6-2.6-1.6-4.6v-1c0-2.1.5-3.7 1.4-4.9 1-1 2.2-1.7 4-1.7 1.6 0 2.8.6 3.7 1.6.8 1.1 1.2 2.7 1.3 4.8v1.7h-7c.1 1 .4 1.6.7 2.1.4.5 1 .7 1.8.7 1.2 0 2.1-.4 2.9-1.2l1.4 2c-.5.7-1 1.1-1.9 1.5-.8.4-1.7.5-2.6.5zm-2-8h3.4v-.4c0-.8-.2-1.4-.4-1.8-.3-.4-.7-.6-1.3-.6-.6 0-1 .2-1.3.7-.3.4-.4 1-.5 2z" fill="#203C42"/><path d="M71 45l1.2-4.3h1.6L71.2 48c-.4 1-1 1.6-2 1.6l-.6-.1v-1.1h.2l.9-.2.4-.7.2-.5-2.2-6.3h1.5L71 45zm7.3.2l2-4.5H82V47h-1.4v-4.2L78.8 47h-1l-1.7-4.2V47h-1.4v-6.3h1.8l1.8 4.5zM89 47h-1.5v-2.6h-2.4V47h-1.4v-6.3H85v2.6h2.4v-2.6H89V47zm3-4.3h1.4c.5 0 1 0 1.4.2a2 2 0 0 1 1.2 2 2 2 0 0 1-.7 1.5c-.5.4-1.1.6-1.9.6h-2.8v-6.3H92v2zm6.4 4.3H97v-6.3h1.4V47zM92 43.8v2h1.4c.4 0 .6 0 .8-.2.2-.2.3-.4.3-.7a1 1 0 0 0-.3-.8c-.2-.2-.4-.3-.8-.3H92zm11 3.3a3 3 0 0 1-2.3-.8c-.5-.6-.8-1.4-.8-2.3v-.2c0-.6.1-1.2.4-1.7.2-.5.6-.9 1-1.1.4-.3 1-.5 1.5-.5.8 0 1.5.3 2 .9.4.5.7 1.3.7 2.3v.6h-4.2c0 .5.3 1 .6 1.2.3.3.7.5 1.1.5a2 2 0 0 0 1.6-.8l.8.7-1 1-1.5.2zm-.2-5.4c-.4 0-.7.1-1 .4-.2.3-.4.6-.4 1.1h2.7c0-.5-.2-.9-.4-1.1-.2-.3-.5-.4-1-.4zm11.8 0h-2V47H111v-5.2h-2v-1.1h5.5v1zm3.3 5.4a3 3 0 0 1-2.2-.8c-.5-.6-.8-1.4-.8-2.3v-.2c0-.6.1-1.2.4-1.7.2-.5.6-.9 1-1.1.4-.3 1-.5 1.5-.5.8 0 1.5.3 2 .9.4.5.7 1.3.7 2.3v.6h-4.2c0 .5.3 1 .6 1.2.3.3.7.5 1.1.5a2 2 0 0 0 1.6-.8l.8.7-1 1-1.5.2zm-.1-5.4c-.4 0-.7.1-1 .4-.2.3-.4.6-.4 1.1h2.7c0-.5-.2-.9-.4-1.1-.2-.3-.5-.4-1-.4zm6 1l1.3-2h1.6l-2 3 2 3.3h-1.5l-1.3-2.2-1.3 2.2H121l2-3.2-1.9-3.1h1.6l1.2 2zM133 47h-1.4v-2.6H129V47h-1.4v-6.3h1.4v2.6h2.5v-2.6h1.4V47zm1.3-3.2c0-.6 0-1.2.3-1.7s.6-.9 1-1.2a3 3 0 0 1 1.6-.4c.8 0 1.5.3 2 .9.6.5.9 1.3 1 2.2v.3c0 .6-.2 1.2-.4 1.7-.3.5-.6.8-1 1.1a3 3 0 0 1-1.6.4c-.9 0-1.6-.3-2.1-.9-.6-.6-.8-1.4-.8-2.4zm1.4 0c0 .7.1 1.3.4 1.6.3.4.6.6 1.1.6.5 0 .9-.2 1.1-.6.3-.4.4-1 .4-1.6 0-.7-.1-1.2-.4-1.6-.3-.3-.6-.5-1.1-.5-.5 0-.8.2-1.1.5-.3.4-.4 1-.4 1.7zm11-3.1V47h-1.5v-5.2h-1.8V44c-.2 1-.4 1.8-.7 2.3-.3.5-.8.7-1.5.7h-.5v-1.2h.3c.3 0 .6-.2.7-.6l.3-1.8v-2.7h4.6zm1.2 3c0-.5.1-1.1.4-1.6.2-.5.6-.9 1-1.2.4-.2 1-.4 1.5-.4.9 0 1.6.3 2.1.9.5.5.8 1.3.9 2.2v.3c0 .6-.1 1.2-.4 1.7-.2.5-.6.8-1 1.1a3 3 0 0 1-1.6.4c-.8 0-1.6-.3-2.1-.9-.5-.6-.8-1.4-.8-2.4zm1.4.2c0 .6.2 1.2.4 1.5.3.4.7.6 1.1.6.5 0 .9-.2 1.2-.6.2-.4.4-1 .4-1.6 0-.7-.2-1.2-.4-1.6-.3-.3-.7-.5-1.2-.5-.4 0-.8.2-1 .5-.3.4-.5 1-.5 1.7zm10-2h-2.8V47H155v-6.3h4.2v1.1zm4.7-1.2h1.4V47H164v-4.2l-2.5 4.2H160v-6.3h1.4v4.2l2.5-4.2zm6.9 0h1.4V47h-1.4v-4.2l-2.5 4.2H167v-6.3h1.4v4.2l2.5-4.2z" fill="#788891"/><path d="M32 13.9c1.2 0 2.1.7 2.5 1.7h9a2.6 2.6 0 1 1 0 1.7h-9a2.6 2.6 0 1 1-2.4-3.4zm14 3.4a.9.9 0 1 0 0-1.7.9.9 0 0 0 0 1.7zm-14 0a.9.9 0 1 0 0-1.7.9.9 0 0 0 0 1.7z" fill="#00B2FF"/><path d="M25.1 19.2V14c0-.3.1-.5.3-.6l3.5-3.5c.1-.2.3-.3.6-.3h2.7a2.6 2.6 0 1 1 0 1.8h-2.4l-3 3v5a2.6 2.6 0 1 1-1.7 0zm9.6-8a.9.9 0 1 0 0-1.7.9.9 0 0 0 0 1.8zM26 22.6a.9.9 0 1 0 0-1.7.9.9 0 0 0 0 1.7zM9.5 22.5c.4 0 .8.1 1.1.3l1.5-1.5V13c0-.2.1-.5.3-.6L21 3.7c-.2-.3-.3-.7-.3-1.1a2.6 2.6 0 1 1 2.6 2.6c-.4 0-.8-.1-1.1-.3l-8.4 8.5v8.3l-.3.6L12 24l.2 1.1a2.6 2.6 0 1 1-2.6-2.6zm13.9-19a.9.9 0 1 0 0-1.8.9.9 0 0 0 0 1.8zM9.5 26a.9.9 0 1 0 0-1.7.9.9 0 0 0 0 1.7zM1.7 12.3V8.7c0-.3.1-.5.3-.6L8 2c.2-.2.4-.3.7-.3h4.5a2.6 2.6 0 1 1 0 1.8H9L3.5 9v3.3a2.6 2.6 0 1 1-1.8 0zm13.9-8.8a.9.9 0 1 0 0-1.8.9.9 0 0 0 0 1.8zm-13 12.1a.9.9 0 1 0 0-1.7.9.9 0 0 0 0 1.7zM13.9 47V34.5a2.6 2.6 0 1 1 3.3-3.3h9c.3-1 1.3-1.7 2.4-1.7 1.1 0 2 .7 2.4 1.7h5l3.3-3.2c-.2-.4-.3-.7-.3-1.1a2.6 2.6 0 1 1 2.6 2.6c-.4 0-.8-.1-1.1-.3L37 32.7l-.6.2H31c-.3 1-1.3 1.8-2.4 1.8-1.1 0-2-.8-2.4-1.8h-9c-.3.8-.9 1.3-1.6 1.6V47a2.6 2.6 0 1 1-1.7 0zm27.7-19.3a.9.9 0 1 0 0-1.7.9.9 0 0 0 0 1.7zm-13 5.2a.9.9 0 1 0 0-1.7.9.9 0 0 0 0 1.7zM14.7 50.3a.9.9 0 1 0 0-1.8.9.9 0 0 0 0 1.8zm0-17.4a.9.9 0 1 0 0-1.7.9.9 0 0 0 0 1.7z" fill="#00B2FF"/><path d="M18.2 17.5v-2.8c0-.2 0-.4.3-.6L28.9 3.7c-.2-.3-.3-.7-.3-1.1 0-1.4 1.2-2.6 2.6-2.6 1.1 0 2 .7 2.4 1.7h3.7c.4 0 .8.4.8.9v2.2l3.3 3.3c.3-.2.7-.3 1-.3a2.6 2.6 0 1 1-2.5 2.6c0-.4 0-.8.2-1.1l-3.4-3.5a.9.9 0 0 1-.3-.6V3.5h-2.8a2.6 2.6 0 0 1-3.5 1.4L19.9 15.1v2.4a2.6 2.6 0 1 1-1.7 0zm24.3-6.2a.9.9 0 1 0 0-1.8.9.9 0 0 0 0 1.8zM31.2 3.5a.9.9 0 1 0 0-1.8.9.9 0 0 0 0 1.8zM19.1 20.8a.9.9 0 1 0 0-1.7.9.9 0 0 0 0 1.7z" fill="#00B2FF"/><path d="M20.8 24.3c1.1 0 2 .7 2.4 1.7h10.2l5-5 .6-.2h9.2l2-2v-7.2L43.7 5c-.4.2-.7.3-1.1.3A2.6 2.6 0 1 1 45 2.6c0 .4-.1.8-.3 1.1l7 7 .2.6V19c0 .2 0 .4-.3.6l-2.6 2.6-.6.2h-9.1l-5 5-.6.2H23.2a2.6 2.6 0 1 1-2.4-3.4zM42.5 1.7a.9.9 0 1 0 0 1.8.9.9 0 0 0 0-1.8zm-21.7 26a.9.9 0 1 0 0-1.7.9.9 0 0 0 0 1.7zM2.6 20.8c.4 0 .8.1 1.1.3L7 17.8v-5a2.6 2.6 0 1 1 1.8 0v5.4c0 .2-.1.5-.3.6L5 22.3a2.6 2.6 0 0 1-1.4 3.5v.7l6.6 6.7c.2.1.3.4.3.6v1c1 .4 1.7 1.3 1.7 2.5 0 1-.7 2-1.7 2.4v2a2.6 2.6 0 1 1-1.7 0v-2c-1-.4-1.8-1.3-1.8-2.4 0-1.2.8-2.1 1.8-2.5v-.6L2 27.5a.9.9 0 0 1-.3-.6v-1a2.6 2.6 0 0 1 .9-5.1zm5.2-9.5a.9.9 0 1 0 0-1.8.9.9 0 0 0 0 1.8zM9.5 45a.9.9 0 1 0 0-1.8.9.9 0 0 0 0 1.8zm0-7a.9.9 0 1 0 0-1.7.9.9 0 0 0 0 1.7zM2.6 24.3a.9.9 0 1 0 0-1.8.9.9 0 0 0 0 1.8z" fill="#00B2FF"/>
</symbol>

<symbol id="logo-desktop-full" viewBox="0 0 202 52">
<path d="M32 13.9c1.2 0 2.1.7 2.5 1.7h9a2.6 2.6 0 1 1 0 1.7h-9a2.6 2.6 0 1 1-2.4-3.4zm14 3.4a.9.9 0 1 0 0-1.7.9.9 0 0 0 0 1.7zm-14 0a.9.9 0 1 0 0-1.7.9.9 0 0 0 0 1.7z" fill="#00B2FF"/><path d="M25.1 19.2V14c0-.3.1-.5.3-.6l3.5-3.5c.1-.2.3-.3.6-.3h2.7a2.6 2.6 0 1 1 0 1.8h-2.4l-3 3v5a2.6 2.6 0 1 1-1.7 0zm9.6-8a.9.9 0 1 0 0-1.7.9.9 0 0 0 0 1.8zM26 22.6a.9.9 0 1 0 0-1.7.9.9 0 0 0 0 1.7zM9.5 22.5c.4 0 .8.1 1.1.3l1.5-1.5V13c0-.2.1-.5.3-.6L21 3.7c-.2-.3-.3-.7-.3-1.1a2.6 2.6 0 1 1 2.6 2.6c-.4 0-.8-.1-1.1-.3l-8.4 8.5v8.3l-.3.6L12 24l.2 1.1a2.6 2.6 0 1 1-2.6-2.6zm13.9-19a.9.9 0 1 0 0-1.8.9.9 0 0 0 0 1.8zM9.5 26a.9.9 0 1 0 0-1.7.9.9 0 0 0 0 1.7zM1.7 12.3V8.7c0-.3.1-.5.3-.6L8 2c.2-.2.4-.3.7-.3h4.5a2.6 2.6 0 1 1 0 1.8H9L3.5 9v3.3a2.6 2.6 0 1 1-1.8 0zm13.9-8.8a.9.9 0 1 0 0-1.8.9.9 0 0 0 0 1.8zm-13 12.1a.9.9 0 1 0 0-1.7.9.9 0 0 0 0 1.7zM13.9 47V34.5a2.6 2.6 0 1 1 3.3-3.3h9c.3-1 1.3-1.7 2.4-1.7 1.1 0 2 .7 2.4 1.7h5l3.3-3.2c-.2-.4-.3-.7-.3-1.1a2.6 2.6 0 1 1 2.6 2.6c-.4 0-.8-.1-1.1-.3L37 32.7l-.6.2H31c-.3 1-1.3 1.8-2.4 1.8-1.1 0-2-.8-2.4-1.8h-9c-.3.8-.9 1.3-1.6 1.6V47a2.6 2.6 0 1 1-1.7 0zm27.7-19.3a.9.9 0 1 0 0-1.7.9.9 0 0 0 0 1.7zm-13 5.2a.9.9 0 1 0 0-1.7.9.9 0 0 0 0 1.7zM14.7 50.3a.9.9 0 1 0 0-1.8.9.9 0 0 0 0 1.8zm0-17.4a.9.9 0 1 0 0-1.7.9.9 0 0 0 0 1.7z" fill="#00B2FF"/><path d="M18.2 17.5v-2.8c0-.2 0-.4.3-.6L28.9 3.7c-.2-.3-.3-.7-.3-1.1 0-1.4 1.2-2.6 2.6-2.6 1.1 0 2 .7 2.4 1.7h3.7c.4 0 .8.4.8.9v2.2l3.3 3.3c.3-.2.7-.3 1-.3a2.6 2.6 0 1 1-2.5 2.6c0-.4 0-.8.2-1.1l-3.4-3.5a.9.9 0 0 1-.3-.6V3.5h-2.8a2.6 2.6 0 0 1-3.5 1.4L19.9 15.1v2.4a2.6 2.6 0 1 1-1.7 0zm24.3-6.2a.9.9 0 1 0 0-1.8.9.9 0 0 0 0 1.8zM31.2 3.5a.9.9 0 1 0 0-1.8.9.9 0 0 0 0 1.8zM19.1 20.8a.9.9 0 1 0 0-1.7.9.9 0 0 0 0 1.7z" fill="#00B2FF"/><path d="M20.8 24.3c1.1 0 2 .7 2.4 1.7h10.2l5-5 .6-.2h9.2l2-2v-7.2L43.7 5c-.4.2-.7.3-1.1.3A2.6 2.6 0 1 1 45 2.6c0 .4-.1.8-.3 1.1l7 7 .2.6V19c0 .2 0 .4-.3.6l-2.6 2.6-.6.2h-9.1l-5 5-.6.2H23.2a2.6 2.6 0 1 1-2.4-3.4zM42.5 1.7a.9.9 0 1 0 0 1.8.9.9 0 0 0 0-1.8zm-21.7 26a.9.9 0 1 0 0-1.7.9.9 0 0 0 0 1.7zM2.6 20.8c.4 0 .8.1 1.1.3L7 17.8v-5a2.6 2.6 0 1 1 1.8 0v5.4c0 .2-.1.5-.3.6L5 22.3a2.6 2.6 0 0 1-1.4 3.5v.7l6.6 6.7c.2.1.3.4.3.6v1c1 .4 1.7 1.3 1.7 2.5 0 1-.7 2-1.7 2.4v2a2.6 2.6 0 1 1-1.7 0v-2c-1-.4-1.8-1.3-1.8-2.4 0-1.2.8-2.1 1.8-2.5v-.6L2 27.5a.9.9 0 0 1-.3-.6v-1a2.6 2.6 0 0 1 .9-5.1zm5.2-9.5a.9.9 0 1 0 0-1.8.9.9 0 0 0 0 1.8zM9.5 45a.9.9 0 1 0 0-1.8.9.9 0 0 0 0 1.8zm0-7a.9.9 0 1 0 0-1.7.9.9 0 0 0 0 1.7zM2.6 24.3a.9.9 0 1 0 0-1.8.9.9 0 0 0 0 1.8z" fill="#00B2FF"/><path d="M77 24.3c0-.7-.3-1.2-.6-1.6-.4-.4-1-.8-2-1.2-1.8-.6-3.1-1.4-3.9-2.3-.8-1-1.2-2-1.2-3.2 0-1.5.6-2.7 1.6-3.7a6 6 0 0 1 4-1.3c1.2 0 2.1.2 3 .7.9.4 1.5 1 2 2 .4.8.7 1.7.7 2.8H77c0-.9-.2-1.5-.6-2-.3-.4-.8-.6-1.5-.6a2 2 0 0 0-1.4.6 2 2 0 0 0-.6 1.5c0 .5.2 1 .6 1.3.4.4 1.1.8 2 1.2 1.8.7 3 1.4 3.9 2.3.8 1 1.1 2.1 1.1 3.5 0 1.6-.4 2.8-1.4 3.6-1 1-2.4 1.3-4 1.3a7 7 0 0 1-3.2-.7 5.4 5.4 0 0 1-3-5.1h3.6c0 1 .2 1.8.6 2.2.4.5 1 .7 2 .7 1.2 0 1.8-.6 1.8-2zm9-8.5l.1 1.2c.8-1 1.8-1.5 3-1.5 1.4 0 2.3.6 2.9 1.8a3.6 3.6 0 0 1 3.2-1.8c2.3 0 3.5 1.6 3.5 4.8V29h-3.4v-8.4c0-.8-.1-1.3-.3-1.7-.2-.3-.6-.5-1.1-.5-.6 0-1.1.4-1.4 1.2V29H89v-8.4c0-.8 0-1.3-.3-1.6-.2-.4-.5-.6-1-.6-.7 0-1.1.4-1.5 1V29h-3.4V15.8H86zM107.6 29l-.3-1a3 3 0 0 1-2.5 1.2c-1.1 0-2-.3-2.8-1-.7-.8-1-1.7-1-2.9a4 4 0 0 1 1.3-3.2c.8-.8 2.1-1.2 3.8-1.2h1v-1c0-.6 0-1-.3-1.3-.2-.2-.5-.4-.9-.4-.8 0-1.3.6-1.3 1.6h-3.4c0-1.3.4-2.3 1.3-3 1-.9 2.1-1.3 3.5-1.3 1.5 0 2.6.4 3.4 1.2.8.7 1.2 1.8 1.2 3.2v6.2c0 1.2.2 2 .5 2.7v.2h-3.5zm-2-2.5c.3 0 .7 0 1-.2l.5-.5V23h-.8c-.6 0-1 .2-1.4.6-.3.3-.5.8-.5 1.5 0 1 .4 1.4 1.1 1.4zm14-7.4h-1.1c-1 0-1.6.3-2 1.2V29h-3.4V15.8h3.2l.1 1.4c.6-1 1.3-1.7 2.3-1.7l1 .2-.1 3.4zm6.4-6.6v3.3h1.8v2.6H126v6.5c0 .6 0 1 .2 1.1.2.2.4.3.8.3h.9v2.6c-.6.2-1.3.3-2 .3-2.2 0-3.3-1.2-3.3-3.8v-7H121v-2.6h1.6v-3.3h3.4zm9.6 16.5V11.2h4.7c2 0 3.7.7 5 2a7.7 7.7 0 0 1 1.9 5.4v2.9c0 2.3-.7 4.2-1.9 5.5-1.2 1.3-3 2-5 2h-4.7zm3.6-14.8V26h1c1.3 0 2.1-.3 2.6-1 .5-.6.7-1.6.8-3.2v-3c0-1.7-.3-2.9-.7-3.5-.5-.7-1.3-1-2.4-1h-1.3zm15.7 15c-1.8 0-3.1-.5-4.1-1.5-1-1.1-1.5-2.6-1.5-4.6v-1c0-2.1.4-3.7 1.3-4.9 1-1 2.3-1.7 4-1.7 1.6 0 2.9.6 3.7 1.6.8 1.1 1.3 2.7 1.3 4.8v1.7h-6.9c0 1 .3 1.6.7 2.1.3.5 1 .7 1.7.7 1.2 0 2.2-.4 3-1.2l1.3 2c-.4.7-1 1.1-1.9 1.5-.8.4-1.6.5-2.6.5zm-2.2-8h3.5v-.4c0-.8-.2-1.4-.4-1.8-.2-.4-.7-.6-1.3-.6-.6 0-1 .2-1.3.7-.3.4-.4 1-.5 2zm13 3l1.7-8.4h3.6L167.4 29H164l-3.7-13.2h3.6l1.7 8.3zm10.5 4.8h-3.4V15.8h3.4V29zm-3.6-16.6c0-.6.2-1 .5-1.3.4-.4.8-.6 1.4-.6.6 0 1 .2 1.3.6.4.3.6.7.6 1.3 0 .5-.2 1-.6 1.3-.3.3-.7.5-1.3.5-.6 0-1-.2-1.4-.5-.3-.4-.5-.8-.5-1.3zm11 14c1 0 1.6-.7 1.6-2h3.2c0 1.5-.4 2.6-1.3 3.5-.9.9-2 1.3-3.4 1.3-1.7 0-3-.5-3.8-1.5-1-1.1-1.4-2.7-1.4-4.7v-1c0-2.1.4-3.7 1.3-4.8.9-1.1 2.2-1.7 4-1.7 1.4 0 2.5.5 3.4 1.4.8.9 1.2 2.2 1.2 3.8h-3.2c0-.7-.1-1.3-.4-1.7-.2-.4-.6-.6-1.1-.6-.6 0-1 .2-1.3.7-.3.4-.4 1.2-.4 2.4V23l.1 2.2c.1.5.3.8.5 1 .3.2.6.3 1 .3zm12.1 2.8c-1.7 0-3.1-.5-4.1-1.5-1-1.1-1.5-2.6-1.5-4.6v-1c0-2.1.5-3.7 1.4-4.9.9-1 2.2-1.7 3.9-1.7 1.6 0 2.9.6 3.7 1.6.9 1.1 1.3 2.7 1.3 4.8v1.7h-6.9c0 1 .3 1.6.7 2.1.4.5 1 .7 1.8.7 1.1 0 2-.4 2.8-1.2l1.4 2c-.4.7-1 1.1-1.8 1.5-.8.4-1.7.5-2.7.5zm-2.1-8h3.4v-.4c0-.8-.1-1.4-.4-1.8-.2-.4-.6-.6-1.2-.6s-1 .2-1.4.7c-.2.4-.4 1-.4 2z" fill="#fff"/><path d="M71 45l1.2-4.3h1.6L71.2 48c-.4 1-1 1.6-2 1.6l-.6-.1v-1.1h.2l.9-.2.4-.7.2-.5-2.2-6.3h1.5L71 45zm7.3.2l2-4.5H82V47h-1.4v-4.2L78.8 47h-1l-1.7-4.2V47h-1.4v-6.3h1.8l1.8 4.5zM89 47h-1.5v-2.6h-2.4V47h-1.4v-6.3H85v2.6h2.4v-2.6H89V47zm3-4.3h1.4c.5 0 1 0 1.4.2a2 2 0 0 1 1.2 2 2 2 0 0 1-.7 1.5c-.5.4-1.1.6-1.9.6h-2.8v-6.3H92v2zm6.4 4.3H97v-6.3h1.4V47zM92 43.8v2h1.4c.4 0 .6 0 .8-.2.2-.2.3-.4.3-.7a1 1 0 0 0-.3-.8c-.2-.2-.4-.3-.8-.3H92zm11 3.3a3 3 0 0 1-2.3-.8c-.5-.6-.8-1.4-.8-2.3v-.2c0-.6.1-1.2.4-1.7.2-.5.6-.9 1-1.1.4-.3 1-.5 1.5-.5.8 0 1.5.3 2 .9.4.5.7 1.3.7 2.3v.6h-4.2c0 .5.3 1 .6 1.2.3.3.7.5 1.1.5a2 2 0 0 0 1.6-.8l.8.7-1 1-1.5.2zm-.2-5.4c-.4 0-.7.1-1 .4-.2.3-.4.6-.4 1.1h2.7c0-.5-.2-.9-.4-1.1-.2-.3-.5-.4-1-.4zm11.8 0h-2V47H111v-5.2h-2v-1.1h5.5v1zm3.3 5.4a3 3 0 0 1-2.2-.8c-.5-.6-.8-1.4-.8-2.3v-.2c0-.6.1-1.2.4-1.7.2-.5.6-.9 1-1.1.4-.3 1-.5 1.5-.5.8 0 1.5.3 2 .9.4.5.7 1.3.7 2.3v.6h-4.2c0 .5.3 1 .6 1.2.3.3.7.5 1.1.5a2 2 0 0 0 1.6-.8l.8.7-1 1-1.5.2zm-.1-5.4c-.4 0-.7.1-1 .4-.2.3-.4.6-.4 1.1h2.7c0-.5-.2-.9-.4-1.1-.2-.3-.5-.4-1-.4zm6 1l1.3-2h1.6l-2 3 2 3.3h-1.5l-1.3-2.2-1.3 2.2H121l2-3.2-1.9-3.1h1.6l1.2 2zM133 47h-1.4v-2.6H129V47h-1.4v-6.3h1.4v2.6h2.5v-2.6h1.4V47zm1.3-3.2c0-.6 0-1.2.3-1.7s.6-.9 1-1.2a3 3 0 0 1 1.6-.4c.8 0 1.5.3 2 .9.6.5.9 1.3 1 2.2v.3c0 .6-.2 1.2-.4 1.7-.3.5-.6.8-1 1.1a3 3 0 0 1-1.6.4c-.9 0-1.6-.3-2.1-.9-.6-.6-.8-1.4-.8-2.4zm1.4 0c0 .7.1 1.3.4 1.6.3.4.6.6 1.1.6.5 0 .9-.2 1.1-.6.3-.4.4-1 .4-1.6 0-.7-.1-1.2-.4-1.6-.3-.3-.6-.5-1.1-.5-.5 0-.8.2-1.1.5-.3.4-.4 1-.4 1.7zm11-3.1V47h-1.5v-5.2h-1.8V44c-.2 1-.4 1.8-.7 2.3-.3.5-.8.7-1.5.7h-.5v-1.2h.3c.3 0 .6-.2.7-.6l.3-1.8v-2.7h4.6zm1.2 3c0-.5.1-1.1.4-1.6.2-.5.6-.9 1-1.2.4-.2 1-.4 1.5-.4.9 0 1.6.3 2.1.9.5.5.8 1.3.9 2.2v.3c0 .6-.1 1.2-.4 1.7-.2.5-.6.8-1 1.1a3 3 0 0 1-1.6.4c-.8 0-1.6-.3-2.1-.9-.5-.6-.8-1.4-.8-2.4zm1.4.2c0 .6.2 1.2.4 1.5.3.4.7.6 1.1.6.5 0 .9-.2 1.2-.6.2-.4.4-1 .4-1.6 0-.7-.2-1.2-.4-1.6-.3-.3-.7-.5-1.2-.5-.4 0-.8.2-1 .5-.3.4-.5 1-.5 1.7zm10-2h-2.8V47H155v-6.3h4.2v1.1zm4.7-1.2h1.4V47H164v-4.2l-2.5 4.2H160v-6.3h1.4v4.2l2.5-4.2zm6.9 0h1.4V47h-1.4v-4.2l-2.5 4.2H167v-6.3h1.4v4.2l2.5-4.2z" fill="#788891"/>
</symbol>

<symbol id="ok-icon" viewBox="0 0 27 26">
<path d="M13.9 11c1 0 1.8-.9 1.7-1.8 0-.9-.7-1.8-1.7-1.8S12 8.2 12 9.2s.8 1.8 1.8 1.8z" fill="#CDCDCD"/><path d="M13.7 0C6.4 0 .5 5.8.5 13s6 13 13.2 13a13 13 0 0 0 13.2-13A13 13 0 0 0 13.7 0zm.2 5c2.4 0 4.3 1.9 4.3 4.2 0 2.4-2 4.3-4.4 4.3-2.4 0-4.3-2-4.3-4.3 0-2.4 2-4.3 4.4-4.3zm4.8 10c0 .4-.2.7-.6 1a7.5 7.5 0 0 1-2.4 1l1 1 1.3 1.3c.6.6.5 1.7-.3 2l-.4.2H17c-.3 0-.6-.2-.8-.4l-2.3-2.3a24510.2 24510.2 0 0 0-2.8 2.6h-.4-.2-.1c-.5 0-.9-.3-1-.8-.2-.5 0-1 .3-1.3l1-.9L12 17c.1 0 .1 0 0 0l-2.4-1c-.4-.3-.6-.7-.6-1.2.1-1 1.2-1.5 2-1l.4.3a5.4 5.4 0 0 0 4.2.3l1.2-.6a1.3 1.3 0 0 1 2 1v.1z" fill="#CDCDCD"/>
</symbol>

<symbol id="phone-call" viewBox="0 0 18 18">
<path d="M14.2 11.2c-.3-.4-.8-.6-1.3-.6-.4 0-.9.2-1.3.5l-1.2 1.2-.2-.1-.4-.2a13 13 0 0 1-4.2-4.5l.9-.8.3-.4c.8-.8.8-1.8 0-2.6l-1-1a15.8 15.8 0 0 1-1-1.1c-.5-.4-.9-.6-1.4-.6-.4 0-.9.2-1.3.6L.8 3C.4 3.4.1 4 0 4.7c0 1 .3 2.1.5 2.8.6 1.7 1.5 3.2 3 4.8C5 14.3 7 16 9.3 17a9.3 9.3 0 0 0 3.6 1c.8 0 1.6-.3 2.2-1l.6-.6.5-.5c.4-.4.6-.9.6-1.4 0-.4-.2-.9-.6-1.3l-2-2zm1.4 4l-.5.4-.7.8c-.4.4-.8.6-1.4.6h-.2c-1.1-.1-2.2-.5-3-1a16.9 16.9 0 0 1-8.3-8.9C1 6.1 1 5.5 1 4.8c0-.5.3-.9.6-1.2l1.3-1.3.5-.2.6.2.7.7.4.4 1 1c.4.4.4.8 0 1.2l-.3.3-1 1c-.3.3-.3.6-.2.8.3.7.7 1.3 1.2 2a14 14 0 0 0 3.9 3.4l.4.2.4.1.6-.2 1.3-1.3c0-.2.3-.3.5-.3.3 0 .5.1.6.3l2 2c.5.4.5.8.1 1.3zM9.7 4.3c1 .1 2 .6 2.7 1.3.7.8 1.1 1.7 1.3 2.7 0 .2.3.4.5.4h.1c.3 0 .5-.3.4-.6A5.9 5.9 0 0 0 10 3.3c-.3 0-.5.1-.6.4 0 .3.1.5.4.6zM18 8a9.6 9.6 0 0 0-8-8 .5.5 0 1 0-.1 1 8.6 8.6 0 0 1 7 7.1c.1.3.3.4.6.4.4 0 .5-.3.5-.6z" fill="#00B2FF"/>
</symbol>

<symbol id="stopwatch" viewBox="0 0 29 35">
<path d="M3.2 11.7l-1.5-1.5a2 2 0 0 1 0-3 2 2 0 0 1 3 0L6.1 9c1.7-1.2 3.6-2 5.5-2.3v-2h-1.3a.7.7 0 0 1-.7-.8V2.1c0-1.2.9-2.1 2-2.1h5.6c1.1 0 2 1 2 2v1.8c0 .4-.3.7-.7.7h-1.3v2c2 .4 3.8 1.2 5.5 2.4l1.6-1.6a2 2 0 0 1 2.9 0 2 2 0 0 1 0 2.9l-1.5 1.5c2 2.5 3.2 5.7 3.2 9C29 28.5 22.5 35 14.5 35S0 28.6 0 20.6c0-3.2 1.1-6.4 3.2-9zm.5-3.4a.7.7 0 0 0-1 0c-.3.2-.3.7 0 1L4 10.5l1-.9-1.4-1.4zM18 2c0-.4-.4-.7-.7-.7h-5.6c-.3 0-.7.3-.7.7v1h7v-1zM13 4.5v1.9H16V4.5H13zm13.2 3.8a.7.7 0 0 0-1 0L24 9.7l1 1 1.4-1.5c.3-.2.3-.7 0-1zM14.5 33.6a13 13 0 0 0 13.1-13 12.9 12.9 0 0 0-5.2-10.3 13.2 13.2 0 0 0-21 10.3 13 13 0 0 0 13.1 13z" /><path d="M14.5 22.7a2 2 0 0 1-2-2 2 2 0 0 1 1.3-2v-4.9c0-.4.3-.7.7-.7.4 0 .7.3.7.7v5a2 2 0 0 1 1.4 1.8c0 1.2-1 2.1-2.1 2.1zm0-2.7c-.4 0-.7.3-.7.6 0 .4.3.7.7.7.4 0 .7-.3.7-.7 0-.3-.3-.6-.7-.6z" /><path d="M7.1 13.4h.1c1.2-1.2 2.7-2.1 4.4-2.6.3-.1.7.1.8.5.1.3 0 .7-.4.8A9 9 0 0 0 8.7 14l.4.5c.3.2.3.7 0 1a.7.7 0 0 1-1 0l-.4-.5a8.8 8.8 0 0 0-2.1 5h.6c.4 0 .7.4.7.7 0 .4-.3.7-.7.7h-.6c0 2 .8 3.7 2 5.1l.6-.4c.2-.3.7-.3 1 0 .2.2.2.7 0 1l-.5.4a9 9 0 0 0 5.1 2.1v-.7c0-.3.3-.6.7-.6.4 0 .7.3.7.6v.7a9 9 0 0 0 5.1-2.1l-.4-.5a.7.7 0 0 1 0-1c.2-.2.7-.2 1 0l.4.5c1.3-1.4 2-3.2 2.1-5h-.6a.7.7 0 0 1-.7-.8c0-.3.3-.6.7-.6h.6a8.8 8.8 0 0 0-2-5.1l-.6.4a.7.7 0 0 1-1 0 .7.7 0 0 1 0-1l.5-.4a9 9 0 0 0-3.3-1.8.7.7 0 1 1 .4-1.3 10.4 10.4 0 0 1 4.4 2.6 10.1 10.1 0 0 1 0 14.5 10.3 10.3 0 0 1-14.6 0 10.1 10.1 0 0 1 0-14.5z" /><path d="M14.5 11.8a.7.7 0 0 1-.7-.7c0-.4.3-.7.7-.7.4 0 .7.3.7.7 0 .4-.3.7-.7.7z" />
</symbol>

<symbol id="tag" viewBox="0 0 35 35">
<path d="M11 8.6a.7.7 0 0 0-.9 0 .7.7 0 0 0 0 1 .7.7 0 0 0 1 0 .7.7 0 0 0 0-1z" /><path d="M34.8 2.9L34 2l.8-.8a.7.7 0 0 0-1-1L33 1l-.8-.8a.7.7 0 0 0-.5-.2H20c-1 0-1.8.4-2.4 1l-5.8 5.8a.7.7 0 0 0 1 1L18.6 2a2 2 0 0 1 1.5-.6h11.3l.6.6-2.5 2.5a2.8 2.8 0 1 0 1 1L33 3l.6.6V15c0 .5-.2 1-.6 1.4L16.3 33a2 2 0 0 1-2.9 0L2 21.6a2 2 0 0 1 0-3l7.3-7.3a.7.7 0 0 0-1-1L1 17.7a3.4 3.4 0 0 0 0 4.8L12.5 34a3.4 3.4 0 0 0 4.8 0L34 17.3c.6-.6 1-1.5 1-2.4V3.3c0-.1 0-.3-.2-.4zm-5.7 5a1.4 1.4 0 0 1-2 0 1.4 1.4 0 0 1 1.4-2.3l-.8.8a.7.7 0 0 0 1 1l.7-.9c.2.5 0 1-.3 1.5z" /><path d="M29.2 13.8l-8-8c-1-1-2.7-1-3.8 0L4.8 18.4a2.7 2.7 0 0 0 0 3.8l8 8a2.7 2.7 0 0 0 3.8 0l12.6-12.6a2.7 2.7 0 0 0 0-3.8zm-1 2.8L15.6 29.2a1.3 1.3 0 0 1-1.9 0l-8-8a1.3 1.3 0 0 1 0-1.8L18.5 6.8a1.3 1.3 0 0 1 1.9 0l8 8a1.3 1.3 0 0 1 0 1.8z" /><path d="M22.3 13.7a.7.7 0 0 0-1-1l-.4.4c-1-.6-2.4-.6-3.2.3-.5.5-.8 1.2-.7 1.9a2.9 2.9 0 0 0 .8 1.9c.6.5.6 1.4.2 1.8-.5.5-1.4.5-2 0-.5-.6-.5-1.5 0-2a.7.7 0 0 0-1-1c-.9 1-1 2.3-.3 3.3l-.5.5a.7.7 0 0 0 1 1l.5-.5c.4.3 1 .4 1.4.4.7 0 1.3-.2 1.8-.7 1-1 1-2.7-.1-3.8-.3-.3-.5-.6-.5-1 0-.3.1-.6.3-.8.5-.5 1.4-.5 1.9.1.6.5.6 1.4.1 1.9a.7.7 0 0 0 1 1c.9-1 1-2.3.3-3.3l.4-.4zM15.4 25l-3.5-3.5a.7.7 0 0 0-1 1l3.5 3.5a.7.7 0 0 0 1 0c.2-.3.2-.7 0-1zM10 19.6a.7.7 0 0 0-1 0 .7.7 0 0 0 0 1 .7.7 0 0 0 1 0 .7.7 0 0 0 0-1z" />
</symbol>

<symbol id="vk-icon" viewBox="0 0 26 27">
<path d="M19.5 15.1c-1.1-1-1.2-1-.3-2.2 1.2-1.5 2.8-3.4 1.4-3.4H18c-.5 0-.6.3-.7.7-.7 1.5-2 3.5-2.4 3.2-.5-.3-.3-1.5-.3-3.4.1-.2 0-.5-.1-.6l-.6-.3-1.2-.2c-1.5 0-2.6.6-2 .7 1 .2 1 2.4.7 3.3-.4 1.7-2-1.2-2.7-2.7 0-.4-.4-.7-.8-.7H6c-.4 0-.6.1-.6.3 0 .4 2 4.3 3.8 6.3 1.8 1.9 3.6 1.7 5 1.7 0 0 .2 0 .3-.2l.2-.3c0-1.3.4-2 1.3-1 1 .9 1.2 1.5 2.4 1.5h2.1c.6 0 .7-.2.7-.4.1-.5-.8-1.6-1.6-2.3zM13.9 0C21.2.2 27 6 27 13.2c0 7.2-6.2 12.9-13.5 12.8C6 26 0 20.2 0 13S6.3 0 13.9 0z" fill="#cdcdcd"/>
</symbol>

<symbol id="detective" viewBox="0 0 36 31">
<path d="M18 9.8c-.4 0-.7.3-.7.7 0 .4.3.7.7.7.4 0 .7-.3.7-.7 0-.4-.3-.7-.7-.7z" /><path d="M33.9 14h-2.7C29.7 10 27.6 2.6 23.8.5c-1.9-1-3.7-.3-4.3 1.2-.3.6-.9 1-1.5 1s-1.2-.4-1.5-1C16 .3 14.1-.5 12.3.4 8.5 2.3 6.3 9.8 4.8 14H2.1C1 14 0 15 0 16.1c0 1.2 1 2.2 2.1 2.2H34c1.2 0 2.1-1 2.1-2.2 0-1.1-1-2-2.1-2zM7.3 11.2h7.9c.4 0 .7-.3.7-.7 0-.4-.3-.7-.7-.7H7.8C10 3.8 12 2 13 1.7c1.1-.6 2-.1 2.4.6A3 3 0 0 0 18 4a3 3 0 0 0 2.7-1.7c.4-.8 1.3-1.2 2.5-.5 1 .5 3 2.3 5 8h-7.4c-.4 0-.7.3-.7.7 0 .4.3.7.7.7h7.9l1 2.8H6.3l1-2.8zM34 16.8H2a.7.7 0 0 1-.7-.7c0-.4.3-.7.7-.7H34c.4 0 .7.3.7.7 0 .4-.3.7-.7.7zM16.6 21H5.3c-.3 0-.7.4-.7.8v2.8c0 3.5 2.9 6.4 6.4 6.4 2.6 0 5-1.6 5.9-4.1.7-.3 1.5-.3 2.2 0a6.3 6.3 0 0 0 12.3-2.3v-2.8c0-.4-.4-.7-.7-.7H19.4c-.4 0-.7.3-.7.7v.7h-1.4v-.7c0-.4-.3-.7-.7-.7zM11 29.7a5 5 0 0 1-5-5v-2.1H16v2.1a5 5 0 0 1-5 5zm9.1-7.1H30v2.1a5 5 0 0 1-5 5 5 5 0 0 1-4.9-5v-2.1zm-1.4 1.4v1.4h-1.4v-1.4h1.4z" /><path d="M11 26.8c-1.2 0-2.1-1-2.1-2.2 0-.4-.4-.7-.7-.7-.4 0-.7.3-.7.7 0 2 1.5 3.6 3.5 3.6.4 0 .7-.3.7-.7 0-.4-.3-.7-.7-.7zM25 28.2c2 0 3.5-1.6 3.5-3.6 0-.4-.3-.7-.7-.7-.3 0-.7.3-.7.7 0 1.2-1 2.2-2 2.2-.5 0-.8.3-.8.7 0 .4.3.7.7.7z" />
</symbol>

<symbol id="logo-mobile" viewBox="0 0 38 38">
<path d="M23.4 10.1c.9 0 1.6.6 1.8 1.3h6.6a1.9 1.9 0 1 1 0 1.3h-6.6a1.9 1.9 0 1 1-1.8-2.6zm10.2 2.6a.6.6 0 1 0 0-1.3.6.6 0 0 0 0 1.3zm-10.2 0a.6.6 0 1 0 0-1.3.6.6 0 0 0 0 1.3z" fill="#00B2FF"/><path d="M18.4 14v-3.9c0-.1 0-.3.2-.4L21 7.2c.1-.2.3-.2.4-.2h2a1.9 1.9 0 1 1 0 1.2h-1.7l-2.2 2.2V14a1.9 1.9 0 1 1-1.2 0zm7-5.8a.6.6 0 1 0 0-1.2.6.6 0 0 0 0 1.2zM19 16.5a.6.6 0 1 0 0-1.3.6.6 0 0 0 0 1.3zM7 16.5c.3 0 .5 0 .8.2l1-1.1V9.5c0-.2.1-.3.3-.4l6.3-6.4-.2-.8a1.9 1.9 0 1 1 1.9 1.9c-.3 0-.6 0-.8-.2L10 9.8v6c0 .2 0 .4-.2.5l-1.2 1.3.2.8a1.9 1.9 0 1 1-2-2zM17 2.5a.6.6 0 1 0 0-1.2.6.6 0 0 0 0 1.2zM7 19a.6.6 0 1 0 0-1.3.6.6 0 0 0 0 1.3zM1.3 9V6.3c0-.1 0-.3.2-.4l4.4-4.4c.1-.2.3-.2.4-.2h3.3a1.9 1.9 0 1 1 0 1.2h-3l-4 4.1V9a1.9 1.9 0 1 1-1.3 0zm10.1-6.5a.6.6 0 1 0 0-1.2.6.6 0 0 0 0 1.2zm-9.5 8.9a.6.6 0 1 0 0-1.3.6.6 0 0 0 0 1.3zM10.1 34.3v-9a1.9 1.9 0 1 1 2.5-2.5H19c.3-.7 1-1.3 1.8-1.3s1.5.6 1.8 1.3h3.6l2.4-2.4-.2-.8a1.9 1.9 0 1 1 1.9 2c-.3 0-.6-.1-.8-.3L27 24l-.4.2h-4c-.2.7-.9 1.2-1.7 1.2-.8 0-1.5-.5-1.8-1.2h-6.6c-.1.5-.6 1-1.1 1.1v9.1a1.9 1.9 0 1 1-1.3 0zm20.3-14a.6.6 0 1 0 0-1.3.6.6 0 0 0 0 1.3zM20.9 24a.6.6 0 1 0 0-1.3.6.6 0 0 0 0 1.3zM10.8 36.7a.6.6 0 1 0 0-1.2.6.6 0 0 0 0 1.2zm0-12.6a.6.6 0 1 0 0-1.3.6.6 0 0 0 0 1.3z" fill="#00B2FF"/><path d="M13.3 12.8v-2c0-.2 0-.4.2-.5L21 2.7l-.2-.8c0-1 .9-1.9 1.9-1.9.8 0 1.5.5 1.8 1.3h2.6c.4 0 .7.2.7.6v1.6L30.2 6l.8-.2a1.9 1.9 0 1 1-1.9 1.9l.2-.8-2.5-2.6a.6.6 0 0 1-.2-.4V2.5h-2A1.9 1.9 0 0 1 22 3.6L14.6 11v1.8a1.9 1.9 0 1 1-1.3 0zM31 8.2A.6.6 0 1 0 31 7a.6.6 0 0 0 0 1.2zm-8.2-5.7a.6.6 0 1 0 0-1.2.6.6 0 0 0 0 1.2zm-8.9 12.7a.6.6 0 1 0 0-1.3.6.6 0 0 0 0 1.3z" fill="#00B2FF"/><path d="M15.2 17.7c.8 0 1.5.6 1.8 1.3h7.4l3.7-3.6.4-.2h6.7l1.5-1.5V8.5l-4.9-4.9-.8.2a1.9 1.9 0 1 1 2-1.9c0 .3-.1.6-.3.8l5.1 5 .2.5V14c0 .2 0 .4-.2.5L36 16.3l-.4.2h-6.7L25 20l-.4.2H17a1.9 1.9 0 1 1-1.8-2.6zM31 1.3a.6.6 0 1 0 0 1.2.6.6 0 0 0 0-1.2zm-15.8 19a.6.6 0 1 0 0-1.3.6.6 0 0 0 0 1.3zM1.9 15.2c.3 0 .6 0 .8.2L5.1 13V9.4a1.9 1.9 0 1 1 1.2 0v3.9c0 .2 0 .3-.2.4l-2.5 2.6a1.9 1.9 0 0 1-1 2.6v.5l4.8 4.9.2.4v.7c.7.3 1.3 1 1.3 1.8 0 .9-.6 1.6-1.3 1.8v1.5a1.9 1.9 0 1 1-1.3 0V29c-.7-.2-1.2-1-1.2-1.8s.5-1.5 1.2-1.8V25l-4.8-5a.6.6 0 0 1-.2-.4V19a1.9 1.9 0 0 1 .6-3.7zm3.8-7a.6.6 0 1 0 0-1.2.6.6 0 0 0 0 1.2zM7 33a.6.6 0 1 0 0-1.2.6.6 0 0 0 0 1.2zm0-5a.6.6 0 1 0 0-1.3.6.6 0 0 0 0 1.3zM1.9 17.7a.6.6 0 1 0 0-1.2.6.6 0 0 0 0 1.2z" fill="#00B2FF"/>
</symbol>

<symbol id="arrow" viewBox="0 0 6 9">
<path d="M1 8.5l4-4-4-4" stroke="#fff" stroke-linejoin="round"/></symbol>
</svg>
