<svg width="52" height="52" fill="none" xmlns="http://www.w3.org/2000/svg"><path d="M32 13.9c1.2 0 2.1.7 2.5 1.7h9a2.6 2.6 0 1 1 0 1.7h-9a2.6 2.6 0 1 1-2.4-3.4zm14 3.4a.9.9 0 1 0 0-1.7.9.9 0 0 0 0 1.7zm-14 0a.9.9 0 1 0 0-1.7.9.9 0 0 0 0 1.7z" fill="#00B2FF"/><path d="M25.1 19.2V14c0-.3.1-.5.3-.6l3.5-3.5c.1-.2.3-.3.6-.3h2.7a2.6 2.6 0 1 1 0 1.8h-2.4l-3 3v5a2.6 2.6 0 1 1-1.7 0zm9.6-8a.9.9 0 1 0 0-1.7.9.9 0 0 0 0 1.8zM26 22.6a.9.9 0 1 0 0-1.7.9.9 0 0 0 0 1.7zM9.5 22.5c.4 0 .8.1 1.1.3l1.5-1.5V13c0-.2.1-.5.3-.6L21 3.7c-.2-.3-.3-.7-.3-1.1a2.6 2.6 0 1 1 2.6 2.6c-.4 0-.8-.1-1.1-.3l-8.4 8.5v8.3l-.3.6L12 24l.2 1.1a2.6 2.6 0 1 1-2.6-2.6zm13.9-19a.9.9 0 1 0 0-1.8.9.9 0 0 0 0 1.8zM9.5 26a.9.9 0 1 0 0-1.7.9.9 0 0 0 0 1.7zM1.7 12.3V8.7c0-.3.1-.5.3-.6L8 2c.2-.2.4-.3.7-.3h4.5a2.6 2.6 0 1 1 0 1.8H9L3.5 9v3.3a2.6 2.6 0 1 1-1.8 0zm13.9-8.8a.9.9 0 1 0 0-1.8.9.9 0 0 0 0 1.8zm-13 12.1a.9.9 0 1 0 0-1.7.9.9 0 0 0 0 1.7zM13.9 47V34.5a2.6 2.6 0 1 1 3.3-3.3h9c.3-1 1.3-1.7 2.4-1.7 1.1 0 2 .7 2.4 1.7h5l3.3-3.2c-.2-.4-.3-.7-.3-1.1a2.6 2.6 0 1 1 2.6 2.6c-.4 0-.8-.1-1.1-.3L37 32.7l-.6.2H31c-.3 1-1.3 1.8-2.4 1.8-1.1 0-2-.8-2.4-1.8h-9c-.3.8-.9 1.3-1.6 1.6V47a2.6 2.6 0 1 1-1.7 0zm27.7-19.3a.9.9 0 1 0 0-1.7.9.9 0 0 0 0 1.7zm-13 5.2a.9.9 0 1 0 0-1.7.9.9 0 0 0 0 1.7zM14.7 50.3a.9.9 0 1 0 0-1.8.9.9 0 0 0 0 1.8zm0-17.4a.9.9 0 1 0 0-1.7.9.9 0 0 0 0 1.7z" fill="#00B2FF"/><path d="M18.2 17.5v-2.8c0-.2 0-.4.3-.6L28.9 3.7c-.2-.3-.3-.7-.3-1.1 0-1.4 1.2-2.6 2.6-2.6 1.1 0 2 .7 2.4 1.7h3.7c.4 0 .8.4.8.9v2.2l3.3 3.3c.3-.2.7-.3 1-.3a2.6 2.6 0 1 1-2.5 2.6c0-.4 0-.8.2-1.1l-3.4-3.5a.9.9 0 0 1-.3-.6V3.5h-2.8a2.6 2.6 0 0 1-3.5 1.4L19.9 15.1v2.4a2.6 2.6 0 1 1-1.7 0zm24.3-6.2a.9.9 0 1 0 0-1.8.9.9 0 0 0 0 1.8zM31.2 3.5a.9.9 0 1 0 0-1.8.9.9 0 0 0 0 1.8zM19.1 20.8a.9.9 0 1 0 0-1.7.9.9 0 0 0 0 1.7z" fill="#00B2FF"/><path d="M20.8 24.3c1.1 0 2 .7 2.4 1.7h10.2l5-5 .6-.2h9.2l2-2v-7.2L43.7 5c-.4.2-.7.3-1.1.3A2.6 2.6 0 1 1 45 2.6c0 .4-.1.8-.3 1.1l7 7 .2.6V19c0 .2 0 .4-.3.6l-2.6 2.6-.6.2h-9.1l-5 5-.6.2H23.2a2.6 2.6 0 1 1-2.4-3.4zM42.5 1.7a.9.9 0 1 0 0 1.8.9.9 0 0 0 0-1.8zm-21.7 26a.9.9 0 1 0 0-1.7.9.9 0 0 0 0 1.7zM2.6 20.8c.4 0 .8.1 1.1.3L7 17.8v-5a2.6 2.6 0 1 1 1.8 0v5.4c0 .2-.1.5-.3.6L5 22.3a2.6 2.6 0 0 1-1.4 3.5v.7l6.6 6.7c.2.1.3.4.3.6v1c1 .4 1.7 1.3 1.7 2.5 0 1-.7 2-1.7 2.4v2a2.6 2.6 0 1 1-1.7 0v-2c-1-.4-1.8-1.3-1.8-2.4 0-1.2.8-2.1 1.8-2.5v-.6L2 27.5a.9.9 0 0 1-.3-.6v-1a2.6 2.6 0 0 1 .9-5.1zm5.2-9.5a.9.9 0 1 0 0-1.8.9.9 0 0 0 0 1.8zM9.5 45a.9.9 0 1 0 0-1.8.9.9 0 0 0 0 1.8zm0-7a.9.9 0 1 0 0-1.7.9.9 0 0 0 0 1.7zM2.6 24.3a.9.9 0 1 0 0-1.8.9.9 0 0 0 0 1.8z" fill="#00B2FF"/></svg>