<svg width="35" height="35" fill="none" xmlns="http://www.w3.org/2000/svg"><path d="M11 8.6a.7.7 0 0 0-.9 0 .7.7 0 0 0 0 1 .7.7 0 0 0 1 0 .7.7 0 0 0 0-1z" fill="#00B2FF"/><path d="M34.8 2.9L34 2l.8-.8a.7.7 0 0 0-1-1L33 1l-.8-.8a.7.7 0 0 0-.5-.2H20c-1 0-1.8.4-2.4 1l-5.8 5.8a.7.7 0 0 0 1 1L18.6 2a2 2 0 0 1 1.5-.6h11.3l.6.6-2.5 2.5a2.8 2.8 0 1 0 1 1L33 3l.6.6V15c0 .5-.2 1-.6 1.4L16.3 33a2 2 0 0 1-2.9 0L2 21.6a2 2 0 0 1 0-3l7.3-7.3a.7.7 0 0 0-1-1L1 17.7a3.4 3.4 0 0 0 0 4.8L12.5 34a3.4 3.4 0 0 0 4.8 0L34 17.3c.6-.6 1-1.5 1-2.4V3.3c0-.1 0-.3-.2-.4zm-5.7 5a1.4 1.4 0 0 1-2 0 1.4 1.4 0 0 1 1.4-2.3l-.8.8a.7.7 0 0 0 1 1l.7-.9c.2.5 0 1-.3 1.5z" fill="#00B2FF"/><path d="M29.2 13.8l-8-8c-1-1-2.7-1-3.8 0L4.8 18.4a2.7 2.7 0 0 0 0 3.8l8 8a2.7 2.7 0 0 0 3.8 0l12.6-12.6a2.7 2.7 0 0 0 0-3.8zm-1 2.8L15.6 29.2a1.3 1.3 0 0 1-1.9 0l-8-8a1.3 1.3 0 0 1 0-1.8L18.5 6.8a1.3 1.3 0 0 1 1.9 0l8 8a1.3 1.3 0 0 1 0 1.8z" fill="#00B2FF"/><path d="M22.3 13.7a.7.7 0 0 0-1-1l-.4.4c-1-.6-2.4-.6-3.2.3-.5.5-.8 1.2-.7 1.9a2.9 2.9 0 0 0 .8 1.9c.6.5.6 1.4.2 1.8-.5.5-1.4.5-2 0-.5-.6-.5-1.5 0-2a.7.7 0 0 0-1-1c-.9 1-1 2.3-.3 3.3l-.5.5a.7.7 0 0 0 1 1l.5-.5c.4.3 1 .4 1.4.4.7 0 1.3-.2 1.8-.7 1-1 1-2.7-.1-3.8-.3-.3-.5-.6-.5-1 0-.3.1-.6.3-.8.5-.5 1.4-.5 1.9.1.6.5.6 1.4.1 1.9a.7.7 0 0 0 1 1c.9-1 1-2.3.3-3.3l.4-.4zM15.4 25l-3.5-3.5a.7.7 0 0 0-1 1l3.5 3.5a.7.7 0 0 0 1 0c.2-.3.2-.7 0-1zM10 19.6a.7.7 0 0 0-1 0 .7.7 0 0 0 0 1 .7.7 0 0 0 1 0 .7.7 0 0 0 0-1z" fill="#00B2FF"/></svg>