<svg fill="none" height="26" width="27" xmlns="http://www.w3.org/2000/svg"><path d="M19.5 15.1c-1.1-1-1.2-1-.3-2.2 1.2-1.5 2.8-3.4 1.4-3.4H18c-.5 0-.6.3-.7.7-.7 1.5-2 3.5-2.4 3.2-.5-.3-.3-1.5-.3-3.4.1-.2 0-.5-.1-.6l-.6-.3-1.2-.2c-1.5 0-2.6.6-2 .7 1 .2 1 2.4.7 3.3-.4 1.7-2-1.2-2.7-2.7 0-.4-.4-.7-.8-.7H6c-.4 0-.6.1-.6.3 0 .4 2 4.3 3.8 6.3 1.8 1.9 3.6 1.7 5 1.7 0 0 .2 0 .3-.2l.2-.3c0-1.3.4-2 1.3-1 1 .9 1.2 1.5 2.4 1.5h2.1c.6 0 .7-.2.7-.4.1-.5-.8-1.6-1.6-2.3zM13.9 0C21.2.2 27 6 27 13.2c0 7.2-6.2 12.9-13.5 12.8C6 26 0 20.2 0 13S6.3 0 13.9 0z" fill="#cdcdcd"/></svg>